<?xml version="1.0" encoding="UTF-8"?>
<!DOCTYPE svg PUBLIC "-//W3C//DTD SVG 1.1//EN" "http://www.w3.org/Graphics/SVG/1.1/DTD/svg11.dtd">
<svg xmlns="http://www.w3.org/2000/svg" xmlns:xlink="http://www.w3.org/1999/xlink" version="1.1" width="521px" height="261px" viewBox="-0.5 -0.5 521 261"><defs><style type="text/css">@font-face {&#xa;font-family: "Latin Modern Roman";&#xa;src: url("http://mirrors.ctan.org/fonts/lm/fonts/opentype/public/lm/lmroman12-regular.otf");&#xa;}&#xa;</style></defs><g><rect x="0" y="0" width="100" height="40" fill="rgb(255, 255, 255)" stroke="rgb(0, 0, 0)" pointer-events="all"/><path d="M 50 40 L 50 260" fill="none" stroke="rgb(0, 0, 0)" stroke-miterlimit="10" stroke-dasharray="3 3" pointer-events="all"/><g fill="rgb(0, 0, 0)" font-family="Georgia" text-anchor="middle" font-size="13px"><text x="49.5" y="25">MQTT Client</text></g><rect x="45" y="70" width="10" height="180" fill="rgb(255, 255, 255)" stroke="rgb(0, 0, 0)" pointer-events="all"/><rect x="210" y="0" width="100" height="40" fill="rgb(255, 255, 255)" stroke="rgb(0, 0, 0)" pointer-events="all"/><path d="M 260 40 L 260 260" fill="none" stroke="rgb(0, 0, 0)" stroke-miterlimit="10" stroke-dasharray="3 3" pointer-events="all"/><g fill="rgb(0, 0, 0)" font-family="Georgia" text-anchor="middle" font-size="13px"><text x="259.5" y="25">MQTT Broker</text></g><rect x="255" y="70" width="10" height="180" fill="rgb(255, 255, 255)" stroke="rgb(0, 0, 0)" pointer-events="all"/><path d="M 55 120 L 246.88 120" fill="none" stroke="rgb(0, 0, 0)" stroke-miterlimit="10" pointer-events="stroke"/><path d="M 253.88 120 L 246.88 123.5 L 246.88 116.5 Z" fill="rgb(0, 0, 0)" stroke="rgb(0, 0, 0)" stroke-miterlimit="10" pointer-events="all"/><g fill="rgb(0, 0, 0)" font-family="Georgia" text-anchor="middle" font-size="12px"><rect fill="rgb(255, 255, 255)" stroke="none" x="80" y="89" width="152" height="30" stroke-width="0"/><text x="154.5" y="100.5">SUBSCRIBE</text><text x="154.5" y="114.5">living-room/temperature</text></g><path d="M 254.81 149.92 L 63.52 149.23" fill="none" stroke="rgb(0, 0, 0)" stroke-miterlimit="10" pointer-events="stroke"/><path d="M 56.52 149.2 L 63.53 145.73 L 63.51 152.73 Z" fill="rgb(0, 0, 0)" stroke="rgb(0, 0, 0)" stroke-miterlimit="10" pointer-events="all"/><g fill="rgb(0, 0, 0)" font-family="Georgia" text-anchor="middle" font-size="12px"><rect fill="rgb(255, 255, 255)" stroke="none" x="127" y="133" width="56" height="15" stroke-width="0"/><text x="154.31" y="144.06">SUBACK</text></g><rect x="420" y="0" width="100" height="40" fill="rgb(255, 255, 255)" stroke="rgb(0, 0, 0)" pointer-events="all"/><path d="M 470 40 L 470 260" fill="none" stroke="rgb(0, 0, 0)" stroke-miterlimit="10" stroke-dasharray="3 3" pointer-events="all"/><g fill="rgb(0, 0, 0)" font-family="Georgia" text-anchor="middle" font-size="13px"><text x="469.5" y="17">MQTT Client</text><text x="469.5" y="33">(IoT Device)</text></g><rect x="465" y="70" width="10" height="140" fill="rgb(255, 255, 255)" stroke="rgb(0, 0, 0)" pointer-events="all"/><path d="M 464.97 79.94 L 273.12 80" fill="none" stroke="rgb(0, 0, 0)" stroke-miterlimit="10" pointer-events="stroke"/><path d="M 266.12 80 L 273.12 76.5 L 273.12 83.5 Z" fill="rgb(0, 0, 0)" stroke="rgb(0, 0, 0)" stroke-miterlimit="10" pointer-events="all"/><g fill="rgb(0, 0, 0)" font-family="Georgia" text-anchor="middle" font-size="12px"><rect fill="rgb(255, 255, 255)" stroke="none" x="278" y="48" width="182" height="30" stroke-width="0"/><text x="368.47" y="60.47">PUBLISH</text><text x="368.47" y="74.47">living-room/temperature 24.2</text></g><path d="M 264.97 109.78 L 456.36 109.9" fill="none" stroke="rgb(0, 0, 0)" stroke-miterlimit="10" pointer-events="stroke"/><path d="M 463.36 109.9 L 456.36 113.4 L 456.36 106.4 Z" fill="rgb(0, 0, 0)" stroke="rgb(0, 0, 0)" stroke-miterlimit="10" pointer-events="all"/><g fill="rgb(0, 0, 0)" font-family="Georgia" text-anchor="middle" font-size="12px"><rect fill="rgb(255, 255, 255)" stroke="none" x="337" y="93" width="56" height="15" stroke-width="0"/><text x="364.47" y="104.34">PUBACK</text></g><path d="M 254.81 200.32 L 63.12 200.32" fill="none" stroke="rgb(0, 0, 0)" stroke-miterlimit="10" pointer-events="stroke"/><path d="M 56.12 200.32 L 63.12 196.82 L 63.12 203.82 Z" fill="rgb(0, 0, 0)" stroke="rgb(0, 0, 0)" stroke-miterlimit="10" pointer-events="all"/><g fill="rgb(0, 0, 0)" font-family="Georgia" text-anchor="middle" font-size="12px"><rect fill="rgb(255, 255, 255)" stroke="none" x="68" y="169" width="182" height="30" stroke-width="0"/><text x="158.31" y="180.82">PUBLISH</text><text x="158.31" y="194.82">living-room/temperature 24.4</text></g><path d="M 54.93 230.2 L 246.69 229.85" fill="none" stroke="rgb(0, 0, 0)" stroke-miterlimit="10" pointer-events="stroke"/><path d="M 253.69 229.84 L 246.7 233.35 L 246.69 226.35 Z" fill="rgb(0, 0, 0)" stroke="rgb(0, 0, 0)" stroke-miterlimit="10" pointer-events="all"/><g fill="rgb(0, 0, 0)" font-family="Georgia" text-anchor="middle" font-size="12px"><rect fill="rgb(255, 255, 255)" stroke="none" x="127" y="214" width="56" height="15" stroke-width="0"/><text x="154.43" y="224.52">PUBACK</text></g><path d="M 465.13 160.02 L 273.25 160" fill="none" stroke="rgb(0, 0, 0)" stroke-miterlimit="10" pointer-events="stroke"/><path d="M 266.25 160 L 273.25 156.5 L 273.25 163.5 Z" fill="rgb(0, 0, 0)" stroke="rgb(0, 0, 0)" stroke-miterlimit="10" pointer-events="all"/><g fill="rgb(0, 0, 0)" font-family="Georgia" text-anchor="middle" font-size="12px"><rect fill="rgb(255, 255, 255)" stroke="none" x="279" y="129" width="182" height="30" stroke-width="0"/><text x="368.63" y="140.51">PUBLISH</text><text x="368.63" y="154.51">living-room/temperature 24.4</text></g><path d="M 264.97 189.88 L 456.85 189.84" fill="none" stroke="rgb(0, 0, 0)" stroke-miterlimit="10" pointer-events="stroke"/><path d="M 463.85 189.84 L 456.85 193.34 L 456.85 186.34 Z" fill="rgb(0, 0, 0)" stroke="rgb(0, 0, 0)" stroke-miterlimit="10" pointer-events="all"/><g fill="rgb(0, 0, 0)" font-family="Georgia" text-anchor="middle" font-size="12px"><rect fill="rgb(255, 255, 255)" stroke="none" x="337" y="173" width="56" height="15" stroke-width="0"/><text x="364.47" y="184.36">PUBACK</text></g></g></svg>