<?xml version="1.0" encoding="UTF-8"?>
<!DOCTYPE svg PUBLIC "-//W3C//DTD SVG 1.1//EN" "http://www.w3.org/Graphics/SVG/1.1/DTD/svg11.dtd">
<svg xmlns="http://www.w3.org/2000/svg" xmlns:xlink="http://www.w3.org/1999/xlink" version="1.1" width="281px" height="231px" viewBox="-0.5 -0.5 281 231"><defs><style type="text/css">@font-face {&#xa;font-family: "Latin Modern Roman";&#xa;src: url("http://mirrors.ctan.org/fonts/lm/fonts/opentype/public/lm/lmroman12-regular.otf");&#xa;}&#xa;</style></defs><g><rect x="0" y="0" width="80" height="40" fill="rgb(255, 255, 255)" stroke="rgb(0, 0, 0)" pointer-events="all"/><path d="M 40 40 L 40 230" fill="none" stroke="rgb(0, 0, 0)" stroke-miterlimit="10" stroke-dasharray="3 3" pointer-events="all"/><g fill="rgb(0, 0, 0)" font-family="Georgia" text-anchor="middle" font-size="13px"><text x="39.5" y="17">CoAP</text><text x="39.5" y="33">Client</text></g><rect x="35" y="70" width="10" height="150" fill="rgb(255, 255, 255)" stroke="rgb(0, 0, 0)" pointer-events="all"/><rect x="200" y="0" width="80" height="40" fill="rgb(255, 255, 255)" stroke="rgb(0, 0, 0)" pointer-events="all"/><path d="M 240 40 L 240 230" fill="none" stroke="rgb(0, 0, 0)" stroke-miterlimit="10" stroke-dasharray="3 3" pointer-events="all"/><g fill="rgb(0, 0, 0)" font-family="Georgia" text-anchor="middle" font-size="13px"><text x="239.5" y="17">CoAP</text><text x="239.5" y="33">Server</text></g><rect x="235" y="70" width="10" height="150" fill="rgb(255, 255, 255)" stroke="rgb(0, 0, 0)" pointer-events="all"/><path d="M 44.84 79.9 L 226.68 79.9" fill="none" stroke="rgb(0, 0, 0)" stroke-miterlimit="10" pointer-events="stroke"/><path d="M 233.68 79.9 L 226.68 83.4 L 226.68 76.4 Z" fill="rgb(0, 0, 0)" stroke="rgb(0, 0, 0)" stroke-miterlimit="10" pointer-events="all"/><g fill="rgb(0, 0, 0)" font-family="Georgia" text-anchor="middle" font-size="12px"><rect fill="rgb(255, 255, 255)" stroke="none" x="51" y="48" width="179" height="30" stroke-width="0"/><text x="139.34" y="60.4">GET /suit-manifest</text><text x="139.34" y="74.4">Block1 Nr 0, More 0, Size 32</text></g><path d="M 234.84 119.95 L 53.03 119.81" fill="none" stroke="rgb(0, 0, 0)" stroke-miterlimit="10" pointer-events="stroke"/><path d="M 46.03 119.8 L 53.03 116.31 L 53.03 123.31 Z" fill="rgb(0, 0, 0)" stroke="rgb(0, 0, 0)" stroke-miterlimit="10" pointer-events="all"/><g fill="rgb(0, 0, 0)" font-family="Georgia" text-anchor="middle" font-size="12px"><rect fill="rgb(255, 255, 255)" stroke="none" x="51" y="88" width="179" height="30" stroke-width="0"/><text x="139.34" y="100.37">2.05 &lt;payload&gt;</text><text x="139.34" y="114.37">Block2 Nr 0, More 1, Size 32</text></g><path d="M 45.18 159.7 L 226.88 159.84" fill="none" stroke="rgb(0, 0, 0)" stroke-miterlimit="10" pointer-events="stroke"/><path d="M 233.88 159.85 L 226.88 163.34 L 226.88 156.34 Z" fill="rgb(0, 0, 0)" stroke="rgb(0, 0, 0)" stroke-miterlimit="10" pointer-events="all"/><g fill="rgb(0, 0, 0)" font-family="Georgia" text-anchor="middle" font-size="12px"><rect fill="rgb(255, 255, 255)" stroke="none" x="51" y="128" width="179" height="30" stroke-width="0"/><text x="139.68" y="140.28">GET /suit-manifest</text><text x="139.68" y="154.28">Block1 Nr 1, More 0, Size 32</text></g><path d="M 235.08 200.05 L 53.03 199.91" fill="none" stroke="rgb(0, 0, 0)" stroke-miterlimit="10" pointer-events="stroke"/><path d="M 46.03 199.9 L 53.03 196.41 L 53.03 203.41 Z" fill="rgb(0, 0, 0)" stroke="rgb(0, 0, 0)" stroke-miterlimit="10" pointer-events="all"/><g fill="rgb(0, 0, 0)" font-family="Georgia" text-anchor="middle" font-size="12px"><rect fill="rgb(255, 255, 255)" stroke="none" x="51" y="168" width="179" height="30" stroke-width="0"/><text x="139.58" y="180.48">2.05 &lt;payload&gt;</text><text x="139.58" y="194.48">Block2 Nr 1, More 0, Size 32</text></g></g></svg>