<?xml version="1.0" encoding="UTF-8"?>
<!DOCTYPE svg PUBLIC "-//W3C//DTD SVG 1.1//EN" "http://www.w3.org/Graphics/SVG/1.1/DTD/svg11.dtd">
<svg xmlns="http://www.w3.org/2000/svg" xmlns:xlink="http://www.w3.org/1999/xlink" version="1.1" width="241px" height="231px" viewBox="-0.5 -0.5 241 231"><defs><style type="text/css">@font-face {&#xa;font-family: "Latin Modern Roman";&#xa;src: url("http://mirrors.ctan.org/fonts/lm/fonts/opentype/public/lm/lmroman12-regular.otf");&#xa;}&#xa;</style></defs><g><rect x="0" y="0" width="80" height="40" fill="rgb(255, 255, 255)" stroke="rgb(0, 0, 0)" pointer-events="all"/><path d="M 40 40 L 40 230" fill="none" stroke="rgb(0, 0, 0)" stroke-miterlimit="10" stroke-dasharray="3 3" pointer-events="all"/><g fill="rgb(0, 0, 0)" font-family="Georgia" text-anchor="middle" font-size="13px"><text x="39.5" y="17">CoAP</text><text x="39.5" y="33">Client</text></g><rect x="35" y="70" width="10" height="110" fill="rgb(255, 255, 255)" stroke="rgb(0, 0, 0)" pointer-events="all"/><rect x="160" y="0" width="80" height="40" fill="rgb(255, 255, 255)" stroke="rgb(0, 0, 0)" pointer-events="all"/><path d="M 200 40 L 200 230" fill="none" stroke="rgb(0, 0, 0)" stroke-miterlimit="10" stroke-dasharray="3 3" pointer-events="all"/><g fill="rgb(0, 0, 0)" font-family="Georgia" text-anchor="middle" font-size="13px"><text x="199.5" y="17">CoAP</text><text x="199.5" y="33">Server</text></g><rect x="195" y="70" width="10" height="110" fill="rgb(255, 255, 255)" stroke="rgb(0, 0, 0)" pointer-events="all"/><path d="M 45.1 99.81 L 186.72 99.91" fill="none" stroke="rgb(0, 0, 0)" stroke-miterlimit="10" pointer-events="stroke"/><path d="M 193.72 99.92 L 186.72 103.41 L 186.72 96.41 Z" fill="rgb(0, 0, 0)" stroke="rgb(0, 0, 0)" stroke-miterlimit="10" pointer-events="all"/><g fill="rgb(0, 0, 0)" font-family="Georgia" text-anchor="middle" font-size="13px"><rect fill="rgb(255, 255, 255)" stroke="none" x="58" y="66" width="125" height="32" stroke-width="0"/><text x="119.6" y="78.37">CON</text><text x="119.6" y="94.37">GET /suit-manifest</text></g><path d="M 195 148.76 L 53.2 148.76" fill="none" stroke="rgb(0, 0, 0)" stroke-miterlimit="10" pointer-events="stroke"/><path d="M 46.2 148.76 L 53.2 145.26 L 53.2 152.26 Z" fill="rgb(0, 0, 0)" stroke="rgb(0, 0, 0)" stroke-miterlimit="10" pointer-events="all"/><g fill="rgb(0, 0, 0)" font-family="Georgia" text-anchor="middle" font-size="13px"><rect fill="rgb(255, 255, 255)" stroke="none" x="67" y="115" width="108" height="32" stroke-width="0"/><text x="119.5" y="127.26">ACK</text><text x="119.5" y="143.26">2.05 &lt;payload&gt;</text></g></g></svg>