<?xml version="1.0" encoding="UTF-8" standalone="no"?>
<!-- Created with Inkscape (http://www.inkscape.org/) -->

<svg
   xmlns:dc="http://purl.org/dc/elements/1.1/"
   xmlns:cc="http://creativecommons.org/ns#"
   xmlns:rdf="http://www.w3.org/1999/02/22-rdf-syntax-ns#"
   xmlns:svg="http://www.w3.org/2000/svg"
   xmlns="http://www.w3.org/2000/svg"
   xmlns:sodipodi="http://sodipodi.sourceforge.net/DTD/sodipodi-0.dtd"
   xmlns:inkscape="http://www.inkscape.org/namespaces/inkscape"
   version="1.1"
   id="svg2"
   xml:space="preserve"
   width="617.33331"
   height="620"
   viewBox="0 0 617.33331 620"
   sodipodi:docname="ovgu.svg"
   inkscape:version="0.92.5 (2060ec1f9f, 2020-04-08)"><metadata
     id="metadata8"><rdf:RDF><cc:Work
         rdf:about=""><dc:format>image/svg+xml</dc:format><dc:type
           rdf:resource="http://purl.org/dc/dcmitype/StillImage" /><dc:title></dc:title></cc:Work></rdf:RDF></metadata><defs
     id="defs6"><clipPath
       clipPathUnits="userSpaceOnUse"
       id="clipPath20"><path
         d="M 0,0 H 468 V 472 H 0 Z"
         id="path18"
         inkscape:connector-curvature="0" /></clipPath></defs><sodipodi:namedview
     pagecolor="#ffffff"
     bordercolor="#666666"
     borderopacity="1"
     objecttolerance="10"
     gridtolerance="10"
     guidetolerance="10"
     inkscape:pageopacity="0"
     inkscape:pageshadow="2"
     inkscape:window-width="2560"
     inkscape:window-height="1340"
     id="namedview4"
     showgrid="false"
     inkscape:zoom="0.76129032"
     inkscape:cx="223.93472"
     inkscape:cy="476.77821"
     inkscape:window-x="732"
     inkscape:window-y="27"
     inkscape:window-maximized="1"
     inkscape:current-layer="g10" /><g
     id="g10"
     inkscape:groupmode="layer"
     inkscape:label="ovgu"
     transform="matrix(1.3333333,0,0,-1.3333333,0,620)"><g
       id="g12"
       transform="translate(-1,-3)"><g
         id="g14"><g
           id="g16"
           clip-path="url(#clipPath20)"><g
             id="g22"
             transform="scale(0.045703)"><path
               d="M 4780,10209 C 3935,10152 3132,9884 2427,9424 1960,9119 1532,8718 1187,8262 682,7595 349,6776 245,5945 c -49,-391 -48,-841 1,-1235 102,-820 426,-1621 926,-2292 150,-202 281,-353 472,-543 348,-348 709,-617 1131,-846 148,-80 155,-86 161,-119 3,-19 23,-109 44,-200 39,-170 79,-280 102,-280 7,0 91,67 186,149 l 173,149 117,-39 c 550,-186 1184,-271 1770,-240 131,7 281,18 334,25 l 97,12 188,-188 c 189,-190 230,-221 257,-198 26,21 139,191 252,380 l 111,185 119,42 c 581,206 1066,481 1536,868 165,136 471,440 604,600 681,819 1062,1747 1144,2789 13,166 13,566 0,732 -68,856 -343,1648 -819,2359 -295,440 -697,863 -1126,1185 -726,545 -1581,874 -2495,960 -161,15 -589,20 -750,9 z m 805,-103 c 580,-65 1109,-216 1610,-462 772,-377 1443,-970 1918,-1695 919,-1402 1036,-3182 308,-4694 C 9180,2754 8888,2346 8481,1939 8083,1542 7685,1256 7205,1021 6991,916 6656,781 6643,794 c -7,7 163,295 260,441 94,141 115,169 220,293 l 79,93 -12,61 c -28,146 -89,275 -276,588 -201,336 -220,387 -161,419 33,18 79,-7 181,-96 119,-103 187,-154 234,-175 78,-35 182,-33 205,4 8,12 -3,28 -50,75 -110,110 -142,215 -104,341 27,89 46,112 100,122 85,15 151,-27 151,-96 0,-28 5,-35 26,-40 38,-10 104,2 133,24 38,28 49,89 27,147 -25,64 -97,124 -238,196 -172,87 -238,155 -238,242 0,71 6,71 93,-4 45,-38 113,-85 151,-104 59,-30 78,-35 140,-35 142,1 253,38 351,120 50,43 165,169 165,182 0,9 -34,4 -160,-25 -57,-13 -129,-22 -180,-22 -75,0 -91,4 -139,30 -71,39 -132,111 -186,217 -61,122 -82,190 -67,223 6,14 18,25 26,25 8,0 36,-33 62,-72 89,-138 213,-234 318,-245 41,-5 46,-3 117,60 64,56 269,275 277,297 1,4 -19,-3 -45,-17 -27,-13 -72,-26 -100,-30 -43,-5 -58,-2 -87,17 -77,47 -126,151 -129,275 -1,41 1,76 4,79 3,3 74,20 158,36 171,34 259,69 314,124 48,47 63,78 77,154 12,70 7,126 -22,219 -18,60 -22,65 -105,125 -116,84 -180,144 -206,193 -21,38 -22,51 -19,250 4,285 -11,326 -150,403 -219,121 -385,281 -485,469 -40,75 -42,84 -42,159 1,96 -11,132 -86,263 -63,111 -85,172 -85,237 0,36 -8,54 -50,109 -63,83 -105,173 -170,360 -101,290 -149,389 -232,476 -59,61 -122,102 -188,124 -72,23 -131,53 -262,132 -184,110 -397,194 -589,233 -369,74 -806,37 -1479,-126 -246,-59 -413,-154 -573,-324 -132,-140 -236,-314 -412,-689 -180,-382 -308,-577 -463,-706 -60,-49 -69,-54 -143,-65 -113,-16 -173,-36 -208,-69 -30,-28 -31,-32 -31,-109 0,-46 5,-84 11,-87 10,-7 54,20 114,69 l 31,25 89,-14 c 119,-20 304,-19 379,0 84,22 193,82 248,136 53,53 71,101 88,238 11,91 22,114 54,109 18,-3 21,-11 24,-59 6,-122 -52,-274 -138,-359 -121,-122 -395,-194 -619,-162 l -74,11 -40,-45 c -67,-76 -149,-104 -305,-104 -78,0 -92,-3 -139,-30 -85,-49 -98,-81 -113,-290 -16,-218 -10,-345 20,-423 23,-61 86,-149 120,-167 22,-12 22,-13 36,55 7,32 14,41 34,44 14,2 110,-2 213,-9 135,-10 212,-11 270,-3 45,5 84,9 86,7 1,-1 -8,-28 -22,-58 -19,-41 -63,-94 -174,-209 -214,-220 -225,-249 -187,-504 9,-61 14,-141 12,-183 -10,-167 -100,-269 -212,-239 -43,12 -126,84 -172,150 -35,51 -44,39 -44,-66 0,-157 43,-266 140,-359 66,-63 117,-91 183,-101 55,-8 72,-26 132,-143 38,-72 67,-103 115,-117 56,-17 96,-80 81,-132 -11,-38 -47,-108 -81,-158 -15,-22 -38,-60 -50,-85 -21,-40 -22,-50 -12,-95 13,-66 113,-298 123,-288 4,4 17,46 29,92 39,153 79,205 159,205 60,0 110,-31 141,-86 l 21,-38 -35,-59 c -70,-114 -81,-181 -45,-275 40,-108 166,-265 265,-330 36,-24 44,-25 68,-15 36,17 33,39 -9,68 -71,48 -96,132 -55,184 44,55 198,80 325,52 l 77,-17 50,31 c 28,18 52,30 54,28 6,-6 -139,-256 -236,-408 -51,-79 -159,-243 -240,-364 -81,-121 -173,-265 -205,-320 l -59,-100 23,-158 c 12,-87 21,-161 18,-163 -6,-6 -240,125 -369,207 -322,204 -596,427 -873,710 -373,381 -663,793 -891,1264 -733,1516 -619,3298 303,4704 418,638 1000,1185 1653,1555 594,337 1275,550 1930,606 69,6 143,12 165,14 95,9 629,-4 760,-18 z M 4875,7978 c 41,-61 121,-134 197,-180 64,-38 75,-41 196,-54 274,-28 442,-115 706,-365 82,-77 88,-81 122,-76 42,7 87,34 79,47 -3,5 -22,14 -43,21 -92,30 -145,88 -226,246 -67,130 -153,221 -257,272 -67,32 -76,39 -57,45 41,11 124,6 169,-9 66,-23 106,-60 217,-203 156,-201 274,-296 391,-318 l 34,-7 -6,-91 c -4,-50 -21,-185 -38,-301 -26,-173 -32,-241 -33,-385 0,-205 12,-272 73,-383 68,-124 115,-270 137,-432 5,-33 9,-276 9,-540 0,-513 3,-552 56,-730 21,-73 59,-124 111,-151 66,-34 65,6 -2,89 -27,34 -53,77 -56,95 -9,46 3,133 20,150 12,12 15,4 25,-55 23,-127 82,-220 174,-273 68,-39 92,-40 82,-2 -24,86 40,121 105,56 20,-19 25,-34 25,-73 0,-106 -82,-132 -202,-65 l -65,36 -57,-60 c -71,-74 -96,-82 -165,-53 -28,13 -56,25 -63,27 -22,10 -102,-286 -198,-731 -90,-419 -89,-418 -128,-487 -137,-245 -411,-491 -697,-627 -106,-50 -291,-123 -297,-117 -2,2 18,29 44,60 27,31 73,95 103,143 50,79 54,91 52,137 -3,50 -2,51 42,79 25,16 87,67 138,115 51,48 136,125 189,170 292,251 478,605 554,1057 48,285 42,387 -10,168 -69,-296 -192,-592 -330,-798 -137,-204 -281,-346 -505,-497 -118,-80 -142,-92 -186,-96 -64,-5 -111,14 -219,92 -134,97 -195,118 -265,93 -30,-10 -36,-18 -42,-52 -4,-22 -4,-48 -2,-58 7,-23 40,-22 61,3 26,30 33,8 33,-106 0,-95 -12,-164 -30,-164 -4,0 -9,33 -12,73 -5,77 -22,117 -51,117 -18,0 -31,-23 -41,-71 -3,-15 -12,-29 -19,-32 -11,-4 -15,14 -20,83 -6,99 -20,133 -72,179 -63,55 -85,41 -104,-64 -8,-43 -18,-66 -36,-82 -40,-35 -62,-30 -76,17 -12,39 -11,42 19,73 63,65 85,195 75,439 -6,148 -8,160 -27,170 -12,6 -31,22 -43,37 l -22,26 -17,-40 c -11,-27 -19,-84 -24,-175 -12,-203 -36,-248 -167,-310 -63,-30 -105,-59 -154,-107 l -67,-65 -42,53 c -80,101 -112,188 -164,444 -37,176 -64,273 -97,337 -14,27 -19,58 -19,115 l 1,78 15,-44 c 18,-50 53,-110 78,-130 24,-20 123,-16 192,8 32,12 66,21 75,21 9,0 68,-26 130,-57 101,-52 119,-58 174,-58 50,0 69,5 103,28 31,20 42,34 42,52 0,24 -2,25 -75,25 -83,0 -137,17 -154,49 -9,17 -8,24 8,40 33,33 86,37 168,12 90,-26 120,-26 208,-1 89,25 116,25 168,-2 34,-17 68,-23 177,-29 201,-11 204,-12 238,-73 17,-28 48,-68 71,-89 38,-34 46,-37 100,-37 69,0 83,10 117,85 45,98 56,337 17,352 -30,12 -48,-12 -55,-75 -11,-102 -59,-171 -97,-139 -141,116 -191,162 -191,173 0,24 26,15 76,-26 81,-67 147,-64 160,7 10,55 -4,84 -51,98 -62,18 -96,39 -179,110 -101,85 -144,107 -204,103 -42,-3 -48,-6 -61,-35 -16,-36 -22,-38 -84,-24 -23,6 -59,13 -79,16 -29,4 -42,13 -53,35 -23,44 -19,83 10,108 22,19 25,30 25,84 0,43 5,67 17,80 22,24 33,23 84,-12 24,-16 57,-30 72,-30 35,0 77,40 77,75 0,28 -18,33 -50,13 -17,-11 -28,-9 -69,15 -96,54 -184,31 -242,-63 -17,-27 -32,-50 -34,-50 -10,0 -153,125 -176,153 -59,72 -77,144 -59,234 15,73 30,101 61,117 13,7 23,19 21,26 -2,7 -6,72 -9,144 -6,135 1,221 39,491 14,94 22,205 22,297 1,143 0,147 -24,173 -14,15 -37,33 -52,41 -15,8 -37,33 -48,55 -49,96 -132,156 -252,183 -49,12 -275,36 -329,36 -15,0 -10,62 10,105 10,22 50,71 90,108 66,64 71,72 71,110 1,86 28,240 48,266 10,14 43,40 73,56 110,62 107,116 -15,259 -29,34 -56,75 -60,90 -10,42 21,96 77,133 48,32 50,32 165,32 92,-1 131,3 182,20 131,42 277,152 370,280 24,33 47,61 51,61 3,0 19,-19 34,-42 z M 4065,6200 c 50,-17 97,-34 105,-37 16,-5 101,-102 108,-122 6,-17 -24,-13 -68,9 -83,42 -110,12 -35,-40 25,-17 54,-49 65,-71 16,-30 34,-46 77,-67 45,-21 59,-33 65,-57 11,-43 -8,-101 -57,-176 l -43,-66 -11,-172 c -12,-179 -26,-294 -63,-492 -11,-64 -18,-127 -15,-140 4,-14 31,-57 62,-98 30,-40 58,-83 61,-96 7,-30 -30,-115 -64,-148 -15,-14 -52,-32 -83,-41 -108,-31 -207,-113 -276,-231 -26,-44 -33,-50 -59,-47 -16,2 -53,14 -83,28 -29,13 -59,24 -66,24 -16,0 -24,-31 -26,-100 -1,-48 -2,-51 -9,-25 -5,17 -16,71 -25,120 -9,50 -55,221 -100,382 -116,402 -130,476 -130,688 1,252 37,384 123,442 43,28 65,20 141,-49 79,-72 128,-92 208,-85 101,10 212,68 175,91 -5,3 -40,2 -78,-2 -91,-10 -171,0 -228,27 -56,28 -64,57 -12,47 42,-8 52,4 32,42 -19,38 -23,126 -7,146 26,32 41,19 41,-35 0,-65 22,-111 69,-144 55,-37 97,-41 159,-15 62,27 77,43 91,98 7,23 16,42 22,42 12,0 49,-60 49,-82 0,-9 11,-29 23,-44 43,-49 132,-24 125,35 -2,20 -16,33 -56,54 -32,17 -62,43 -76,65 -45,71 -96,99 -245,133 -50,11 -91,25 -91,30 0,5 12,16 26,26 20,13 49,17 113,18 70,0 86,3 89,16 5,25 -78,44 -183,44 -116,-1 -195,-33 -260,-108 -44,-50 -65,-55 -65,-13 0,49 104,172 179,210 78,41 166,37 306,-14 z m -57,-307 c 2,-8 -6,-13 -22,-13 -25,0 -33,10 -19,24 10,10 36,3 41,-11 z m -114,-89 c 20,-20 21,-54 1,-54 -18,0 -38,37 -31,56 7,18 11,18 30,-2 z m 673,-1621 c 31,-65 64,-88 173,-124 97,-32 142,-61 168,-109 l 22,-42 -27,7 c -16,4 -55,23 -88,43 -81,49 -147,54 -236,18 l -64,-26 -48,30 c -68,42 -105,40 -213,-15 -48,-25 -98,-45 -111,-45 -21,0 -20,4 22,64 53,75 58,80 110,96 74,23 176,83 208,122 18,20 37,38 44,38 7,0 25,-26 40,-57 z M 2770,4024 c 0,-82 -68,-180 -155,-223 -57,-28 -142,-52 -161,-44 -17,6 -18,22 -1,27 6,3 44,14 84,25 89,26 145,78 189,175 31,70 44,82 44,40 z m 3661,-976 c 68,-259 145,-434 344,-793 156,-282 228,-420 269,-516 l 28,-66 -109,-144 C 6777,1282 6560,940 6251,413 c -39,-67 -75,-124 -80,-128 -5,-3 -272,257 -593,579 -321,321 -656,653 -746,738 l -163,154 24,158 c 14,87 29,162 34,166 4,4 85,19 178,34 94,15 233,42 309,61 481,120 904,433 1147,848 22,37 44,67 49,67 5,0 14,-19 21,-42 z M 4120,2838 c -36,-82 -53,-168 -46,-237 5,-63 5,-63 -14,-46 -32,29 -35,76 -10,167 25,93 34,113 63,145 28,32 31,24 7,-29 z m -223,-441 c 80,-81 237,-163 399,-207 119,-32 124,-35 124,-73 0,-46 -46,-322 -57,-341 -22,-40 -234,-264 -393,-415 -340,-322 -831,-764 -840,-755 -25,25 -116,465 -130,633 l -11,118 94,159 c 236,400 438,703 640,957 l 70,88 34,-62 c 18,-35 50,-80 70,-102 z m 707,-269 c 3,-24 2,-74 -3,-113 -5,-38 -17,-128 -27,-199 l -17,-129 24,-19 c 98,-79 459,-433 753,-738 l 351,-365 -115,-14 c -77,-9 -233,-14 -470,-14 -309,-1 -379,2 -539,21 -325,40 -627,105 -910,195 l -133,42 133,119 c 228,202 543,503 685,652 l 136,144 28,167 c 31,187 48,262 63,281 19,24 35,12 41,-30 z"
               style="fill:#000000;fill-opacity:1;fill-rule:nonzero;stroke:none"
               id="path24"
               inkscape:connector-curvature="0" /><path
               d="m 5115,9930 c -74,-5 -79,-9 -30,-25 26,-8 33,-45 40,-211 6,-155 6,-158 -12,-137 -10,12 -83,98 -163,192 l -145,171 h -72 c -42,0 -73,-4 -73,-10 0,-5 9,-10 19,-10 10,0 29,-8 41,-18 22,-17 23,-28 30,-222 5,-119 5,-213 -1,-227 -5,-13 -24,-30 -41,-38 -31,-14 -28,-14 65,-15 94,0 128,11 67,24 -19,3 -34,14 -39,28 -9,26 -26,378 -17,378 2,0 89,-97 191,-215 102,-118 188,-215 190,-215 2,0 3,116 2,258 l -2,257 32,15 c 35,16 43,31 16,28 -10,-1 -54,-4 -98,-8 z"
               style="fill:#000000;fill-opacity:1;fill-rule:nonzero;stroke:none"
               id="path26"
               inkscape:connector-curvature="0" /><path
               d="m 5325,9911 c 3,-6 14,-11 24,-11 43,0 44,-17 27,-251 -9,-125 -21,-228 -27,-235 -6,-8 -24,-14 -40,-14 -16,0 -29,-4 -29,-9 0,-9 123,-21 199,-20 l 46,1 -34,12 c -19,7 -37,21 -41,32 -4,10 -1,111 7,224 17,228 23,250 75,250 19,0 28,4 23,9 -15,13 -238,25 -230,12 z"
               style="fill:#000000;fill-opacity:1;fill-rule:nonzero;stroke:none"
               id="path28"
               inkscape:connector-curvature="0" /><path
               d="m 4463,9892 c -83,-15 -110,-32 -52,-32 41,0 51,-28 86,-229 l 28,-162 -20,-37 c -35,-65 -142,-101 -210,-70 -14,6 -34,26 -45,43 -22,36 -84,357 -75,392 3,13 16,25 30,29 40,10 29,26 -12,18 -130,-23 -175,-33 -180,-38 -4,-3 5,-6 20,-6 24,0 57,-22 57,-39 0,-5 13,-81 29,-169 34,-189 53,-232 119,-263 91,-45 244,-4 289,77 29,51 29,95 -2,268 -32,179 -32,183 5,204 27,16 40,34 23,31 -5,-1 -45,-8 -90,-17 z"
               style="fill:#000000;fill-opacity:1;fill-rule:nonzero;stroke:none"
               id="path30"
               inkscape:connector-curvature="0" /><path
               d="m 5640,9891 c 0,-6 7,-11 16,-11 24,0 48,-68 104,-290 70,-280 70,-280 79,-280 4,0 69,100 144,223 139,228 161,257 191,257 37,0 3,18 -46,24 -29,4 -63,10 -75,13 -13,3 -23,1 -23,-4 0,-4 10,-13 23,-18 15,-7 21,-17 19,-34 -3,-31 -183,-324 -193,-314 -13,15 -92,360 -86,376 4,11 18,17 39,17 53,1 13,16 -77,29 -44,7 -88,15 -97,17 -10,3 -18,1 -18,-5 z"
               style="fill:#000000;fill-opacity:1;fill-rule:nonzero;stroke:none"
               id="path32"
               inkscape:connector-curvature="0" /><path
               d="m 6300,9773 c 0,-3 11,-14 25,-25 14,-11 25,-27 25,-36 0,-28 -132,-406 -149,-425 -11,-13 -24,-17 -43,-13 -16,3 -28,2 -28,-3 0,-4 89,-39 198,-76 108,-37 202,-69 207,-71 14,-5 88,103 80,116 -4,7 -20,-1 -40,-19 -18,-16 -46,-32 -62,-35 -43,-10 -201,37 -218,64 -3,6 10,57 30,114 l 37,104 81,-30 c 45,-16 86,-33 91,-38 5,-5 9,-25 8,-45 -2,-57 13,-40 46,52 33,92 33,116 0,70 -28,-38 -59,-36 -205,18 -9,3 -4,28 18,92 17,48 35,92 40,97 11,12 174,-43 200,-67 12,-11 19,-31 19,-53 0,-50 21,-39 39,19 8,26 12,49 10,51 -9,9 -409,145 -409,139 z"
               style="fill:#000000;fill-opacity:1;fill-rule:nonzero;stroke:none"
               id="path34"
               inkscape:connector-curvature="0" /><path
               d="m 3370,9594 c -183,-75 -237,-103 -174,-90 22,5 36,2 46,-8 8,-8 52,-105 97,-215 85,-210 88,-225 43,-250 -9,-5 -14,-12 -11,-15 4,-5 395,147 406,158 2,1 0,32 -4,69 -7,76 -27,91 -36,27 -3,-23 -12,-52 -21,-65 -20,-30 -139,-88 -185,-89 -34,-1 -34,-1 -74,97 -46,113 -50,103 61,143 l 73,27 29,-28 c 17,-16 32,-26 35,-24 8,8 -59,169 -70,169 -5,0 -10,-17 -10,-37 0,-37 -2,-39 -66,-70 -105,-52 -105,-52 -145,47 -19,47 -32,90 -30,96 6,16 158,74 193,74 16,0 39,-11 55,-27 18,-17 28,-22 28,-12 0,23 -34,99 -45,99 -5,-1 -93,-35 -195,-76 z"
               style="fill:#000000;fill-opacity:1;fill-rule:nonzero;stroke:none"
               id="path36"
               inkscape:connector-curvature="0" /><path
               d="m 6850,9572 c 0,-4 9,-13 20,-20 11,-7 20,-21 20,-33 0,-19 -145,-315 -190,-388 -19,-31 -24,-33 -58,-28 -35,6 -36,5 -17,-9 33,-26 177,-96 183,-89 3,3 -4,12 -16,21 -31,21 -28,42 20,139 36,73 45,84 63,79 11,-4 21,-7 22,-8 2,-2 14,-63 28,-137 14,-74 27,-144 30,-156 4,-15 25,-33 65,-53 33,-17 60,-28 60,-25 0,3 -9,18 -20,33 -10,15 -31,79 -45,142 -13,63 -27,125 -30,137 -5,20 -2,21 55,16 68,-7 98,7 130,60 38,61 18,132 -51,185 -25,19 -253,142 -263,142 -3,0 -6,-3 -6,-8 z m 201,-129 c 57,-37 73,-88 44,-143 -32,-62 -95,-76 -180,-40 l -47,20 47,88 c 26,48 52,92 57,99 11,14 29,8 79,-24 z"
               style="fill:#000000;fill-opacity:1;fill-rule:nonzero;stroke:none"
               id="path38"
               inkscape:connector-curvature="0" /><path
               d="m 2960,9414 c -95,-57 -100,-63 -59,-61 28,2 35,-2 37,-21 4,-23 -67,-262 -77,-262 -9,0 -101,165 -101,181 0,7 10,23 22,36 12,13 20,25 17,27 -3,3 -181,-96 -198,-110 -13,-11 10,-13 33,-3 24,11 29,10 50,-12 25,-25 209,-342 221,-378 4,-15 -1,-28 -21,-46 -15,-14 -22,-25 -15,-25 13,0 201,108 201,116 0,2 -17,2 -38,-2 -44,-7 -51,0 -106,94 -37,65 -47,108 -23,99 8,-3 52,-15 98,-28 92,-24 164,-52 173,-67 3,-5 -3,-17 -14,-27 -44,-40 -15,-31 85,26 58,34 105,64 105,68 0,3 -17,5 -38,3 -27,-3 -93,13 -208,48 -93,28 -171,53 -172,55 -2,2 13,63 33,137 29,108 42,139 67,166 44,45 18,40 -72,-14 z"
               style="fill:#000000;fill-opacity:1;fill-rule:nonzero;stroke:none"
               id="path40"
               inkscape:connector-curvature="0" /><path
               d="m 3888,9433 c -69,-20 -88,-30 -88,-44 0,-10 4,-20 10,-24 8,-5 177,39 187,49 7,6 -7,46 -15,45 -4,0 -46,-12 -94,-26 z"
               style="fill:#000000;fill-opacity:1;fill-rule:nonzero;stroke:none"
               id="path42"
               inkscape:connector-curvature="0" /><path
               d="m 7425,9225 c -44,-16 -70,-45 -84,-92 -12,-42 0,-92 46,-189 46,-97 49,-143 11,-181 -47,-46 -123,-31 -165,34 -11,16 -19,55 -23,102 l -5,76 -31,-60 c -17,-33 -35,-70 -38,-83 -7,-20 -5,-22 16,-17 20,5 31,-2 61,-38 64,-79 154,-106 226,-69 88,44 97,119 31,262 -54,117 -61,162 -30,195 31,34 79,33 119,-1 37,-31 55,-89 45,-150 -3,-24 -2,-44 3,-44 7,0 83,141 83,155 0,3 -11,3 -24,-1 -19,-4 -29,2 -52,31 -55,69 -122,94 -189,70 z"
               style="fill:#000000;fill-opacity:1;fill-rule:nonzero;stroke:none"
               id="path44"
               inkscape:connector-curvature="0" /><path
               d="m 2459,9115 c -1,-3 -3,-9 -4,-15 -1,-5 -3,-15 -4,-20 0,-6 -25,-21 -53,-34 -81,-36 -130,-77 -163,-137 -26,-47 -30,-64 -30,-129 0,-59 5,-84 23,-118 33,-62 96,-127 146,-152 55,-26 155,-27 212,-1 92,42 174,150 174,229 0,44 -16,41 -25,-5 -17,-95 -96,-172 -184,-181 -69,-6 -114,12 -177,73 -96,94 -129,208 -84,295 47,92 167,122 257,63 44,-29 36,-4 -22,67 -55,68 -64,76 -66,65 z"
               style="fill:#000000;fill-opacity:1;fill-rule:nonzero;stroke:none"
               id="path46"
               inkscape:connector-curvature="0" /><path
               d="m 7800,9015 c 0,-3 10,-19 21,-34 13,-18 18,-34 13,-43 -4,-7 -68,-91 -142,-185 -136,-174 -158,-193 -189,-162 -6,6 -16,10 -22,8 -7,-3 29,-36 79,-74 96,-74 129,-93 93,-53 -13,13 -23,33 -23,44 0,11 52,88 116,170 169,218 174,222 222,188 12,-8 22,-11 22,-6 0,5 -37,38 -82,73 -92,72 -108,83 -108,74 z"
               style="fill:#000000;fill-opacity:1;fill-rule:nonzero;stroke:none"
               id="path48"
               inkscape:connector-curvature="0" /><path
               d="m 8010,8765 c -48,-49 -49,-65 -1,-41 47,25 74,20 122,-23 l 44,-38 -159,-167 c -97,-101 -166,-166 -178,-166 -10,0 -30,7 -43,16 -50,33 -23,-6 56,-80 83,-78 116,-98 78,-47 -15,21 -19,34 -12,45 5,10 79,89 163,178 l 154,160 43,-45 c 46,-49 52,-74 28,-121 -9,-16 -13,-31 -10,-34 8,-8 96,81 93,93 -4,15 -313,315 -324,315 -6,0 -30,-20 -54,-45 z"
               style="fill:#000000;fill-opacity:1;fill-rule:nonzero;stroke:none"
               id="path50"
               inkscape:connector-curvature="0" /><path
               d="m 1941,8670 c -47,-44 -82,-83 -78,-86 4,-4 15,0 25,9 37,34 55,22 216,-148 86,-90 156,-170 156,-178 0,-7 -7,-22 -15,-33 -35,-46 -9,-30 74,47 49,46 87,87 85,91 -3,4 -18,-2 -34,-14 -27,-20 -31,-20 -53,-5 -42,27 -302,307 -305,328 -2,11 4,31 12,45 28,42 4,26 -83,-56 z"
               style="fill:#000000;fill-opacity:1;fill-rule:nonzero;stroke:none"
               id="path52"
               inkscape:connector-curvature="0" /><path
               d="m 1710,8397 c -56,-29 -81,-52 -164,-148 -87,-99 -102,-126 -52,-94 15,10 30,13 39,8 30,-17 336,-287 341,-300 3,-8 1,-23 -5,-34 -6,-11 -9,-25 -7,-31 4,-10 148,152 148,165 0,4 -15,-3 -33,-13 l -34,-20 -39,29 c -21,17 -59,48 -84,69 -40,36 -43,42 -30,57 13,16 30,17 175,10 l 161,-7 45,53 c 28,33 37,49 24,44 -27,-13 -335,-19 -335,-7 0,6 7,23 15,38 22,42 19,106 -6,138 -41,52 -107,70 -159,43 z m 81,-96 c 24,-23 39,-48 39,-62 0,-28 -30,-93 -58,-128 l -20,-25 -81,73 c -45,40 -81,79 -81,85 0,14 54,68 85,84 40,22 75,14 116,-27 z"
               style="fill:#000000;fill-opacity:1;fill-rule:nonzero;stroke:none"
               id="path54"
               inkscape:connector-curvature="0" /><path
               d="m 8640,8345 c -26,-32 13,-81 48,-59 34,22 22,74 -18,74 -10,0 -23,-7 -30,-15 z"
               style="fill:#000000;fill-opacity:1;fill-rule:nonzero;stroke:none"
               id="path56"
               inkscape:connector-curvature="0" /><path
               d="m 8740,8215 c -26,-32 13,-81 48,-59 34,22 22,74 -18,74 -10,0 -23,-7 -30,-15 z"
               style="fill:#000000;fill-opacity:1;fill-rule:nonzero;stroke:none"
               id="path58"
               inkscape:connector-curvature="0" /><path
               d="m 8380,8134 c -239,-66 -277,-72 -319,-59 -20,7 -16,-3 29,-58 29,-37 55,-65 57,-63 2,2 -1,15 -6,29 -7,19 -6,28 3,36 14,11 127,53 132,49 1,-2 31,-41 67,-87 l 65,-84 -30,-51 c -45,-77 -52,-82 -82,-63 -14,10 -28,17 -31,17 -6,0 31,-49 107,-143 l 23,-28 1,43 c 0,36 22,83 127,276 70,128 127,237 127,242 0,16 -21,11 -270,-56 z m 160,1 c 0,-3 -25,-50 -57,-106 -45,-81 -59,-99 -67,-87 -6,8 -32,41 -58,75 l -47,61 107,30 c 117,33 122,34 122,27 z"
               style="fill:#000000;fill-opacity:1;fill-rule:nonzero;stroke:none"
               id="path60"
               inkscape:connector-curvature="0" /><path
               d="m 1347,7967 c -19,-29 -69,-106 -111,-171 -93,-143 -100,-157 -59,-127 37,28 20,36 252,-116 l 173,-114 -6,-42 c -5,-27 -4,-38 3,-32 5,6 61,90 125,187 l 115,177 -45,51 c -25,27 -50,48 -54,45 -5,-3 1,-26 12,-52 18,-40 19,-51 8,-86 -20,-67 -89,-167 -115,-167 -11,0 -158,90 -179,110 -8,8 65,125 93,148 10,8 29,11 54,7 20,-4 37,-4 37,-1 0,3 -35,28 -77,55 -78,50 -112,58 -74,17 30,-32 26,-54 -25,-134 l -45,-71 -85,56 c -46,31 -84,59 -84,64 0,4 24,43 53,86 57,86 86,107 125,92 48,-18 43,7 -8,39 l -50,31 z"
               style="fill:#000000;fill-opacity:1;fill-rule:nonzero;stroke:none"
               id="path62"
               inkscape:connector-curvature="0" /><path
               d="m 8813,7842 c -65,-32 -72,-55 -13,-40 32,8 45,7 65,-6 27,-18 80,-94 71,-103 -21,-21 -385,-223 -402,-223 -11,0 -29,9 -39,20 -37,41 -26,8 30,-90 31,-55 59,-100 61,-100 2,0 1,19 -2,43 -5,41 -4,43 38,69 60,36 357,208 361,208 2,0 16,-24 31,-54 31,-60 29,-79 -10,-125 -36,-43 -17,-43 47,-2 l 57,36 -113,195 c -62,107 -116,195 -121,196 -5,2 -33,-9 -61,-24 z"
               style="fill:#000000;fill-opacity:1;fill-rule:nonzero;stroke:none"
               id="path64"
               inkscape:connector-curvature="0" /><path
               d="m 1038,7478 c -37,-85 -40,-111 -9,-69 11,14 28,24 43,24 37,0 306,-122 344,-156 60,-52 55,-143 -11,-215 -51,-56 -85,-52 -275,32 -85,38 -163,75 -173,84 -13,12 -16,24 -11,51 10,52 -3,34 -52,-75 -42,-94 -50,-132 -18,-86 8,12 25,22 38,22 12,0 89,-30 171,-66 146,-66 209,-83 259,-70 69,17 146,138 146,229 0,96 -34,128 -232,218 -163,74 -185,91 -174,135 13,52 -12,20 -46,-58 z"
               style="fill:#000000;fill-opacity:1;fill-rule:nonzero;stroke:none"
               id="path66"
               inkscape:connector-curvature="0" /><path
               d="m 9260,7126 c 0,-18 -6,-38 -12,-44 -12,-9 -354,-123 -407,-135 -18,-5 -31,2 -52,24 -15,16 -29,29 -32,29 -3,0 8,-40 25,-90 29,-88 49,-118 40,-62 -2,18 3,33 16,45 18,17 352,130 359,123 2,-2 -75,-76 -172,-165 -100,-92 -170,-163 -163,-166 7,-2 118,-16 247,-30 129,-14 236,-27 239,-29 4,-5 -368,-126 -386,-126 -6,0 -22,15 -36,33 -33,41 -33,32 5,-83 36,-109 49,-130 49,-78 0,25 5,38 18,43 66,27 401,135 419,135 13,0 29,-11 39,-25 9,-14 19,-24 21,-21 8,7 -41,148 -52,152 -5,2 -104,12 -220,24 -115,11 -211,22 -212,24 -2,2 71,71 161,154 l 165,152 -15,52 c -32,105 -44,123 -44,64 z"
               style="fill:#000000;fill-opacity:1;fill-rule:nonzero;stroke:none"
               id="path68"
               inkscape:connector-curvature="0" /><path
               d="m 786,6862 c 4,-20 -3,-41 -25,-78 -84,-134 -58,-298 61,-384 85,-62 206,-77 293,-36 61,29 95,64 131,136 24,46 29,71 32,153 3,54 0,103 -5,108 -5,5 -49,21 -99,35 -102,30 -114,37 -114,72 0,39 -8,23 -36,-72 -24,-85 -28,-140 -5,-83 8,20 17,27 37,27 32,0 164,-38 182,-52 34,-29 -7,-172 -62,-216 -92,-72 -289,-44 -375,53 -93,106 -48,266 84,299 27,7 50,17 52,23 3,7 -122,44 -149,43 -4,0 -5,-13 -2,-28 z"
               style="fill:#000000;fill-opacity:1;fill-rule:nonzero;stroke:none"
               id="path70"
               inkscape:connector-curvature="0" /><path
               d="m 8974,6283 c 3,-10 10,-45 15,-77 13,-71 16,-76 25,-35 l 6,32 60,-6 c 90,-10 94,-14 109,-104 7,-43 15,-88 18,-100 4,-17 -6,-28 -48,-57 -65,-44 -91,-46 -106,-8 -17,41 -16,3 2,-98 8,-47 15,-87 15,-90 1,-3 7,9 14,26 11,25 65,66 245,185 127,85 230,159 231,165 0,6 -93,32 -212,59 -267,60 -335,81 -351,105 -15,25 -30,26 -23,3 z m 354,-137 c 57,-14 106,-26 108,-28 3,-4 -165,-117 -187,-126 -7,-3 -18,41 -35,141 -3,20 -2,37 2,37 5,0 56,-11 112,-24 z"
               style="fill:#000000;fill-opacity:1;fill-rule:nonzero;stroke:none"
               id="path72"
               inkscape:connector-curvature="0" /><path
               d="m 956,6238 c -3,-7 -9,-42 -16,-78 -6,-36 -14,-75 -17,-87 -4,-19 -1,-23 21,-23 28,0 28,-1 50,117 12,62 12,73 -1,77 -23,9 -33,7 -37,-6 z"
               style="fill:#000000;fill-opacity:1;fill-rule:nonzero;stroke:none"
               id="path74"
               inkscape:connector-curvature="0" /><path
               d="m 580,6005 c -1,-5 -5,-49 -8,-97 -7,-85 -1,-115 12,-63 11,42 43,47 216,34 85,-6 156,-12 157,-13 2,-2 -88,-65 -200,-141 -111,-76 -203,-139 -205,-141 -2,-1 -5,-35 -8,-75 l -6,-74 20,32 c 12,17 28,35 36,40 20,11 404,-15 436,-31 18,-8 26,-20 28,-44 4,-42 22,-41 22,2 0,18 3,61 6,95 5,41 3,61 -4,61 -6,0 -12,-10 -14,-22 -6,-42 -39,-48 -203,-37 -250,16 -252,-4 17,181 128,89 235,163 237,165 14,11 -31,17 -231,30 -123,9 -237,21 -255,29 -23,9 -35,22 -42,46 -5,18 -10,29 -11,23 z"
               style="fill:#000000;fill-opacity:1;fill-rule:nonzero;stroke:none"
               id="path76"
               inkscape:connector-curvature="0" /><path
               d="m 9199,5673 c -59,-30 -110,-94 -129,-161 -17,-61 -11,-161 13,-232 l 22,-65 108,-3 108,-3 19,-32 20,-32 v 108 c 0,65 -4,107 -10,107 -5,0 -10,-11 -10,-24 0,-35 -16,-43 -107,-50 -94,-8 -116,-1 -132,45 -37,108 23,229 131,265 70,23 188,16 251,-15 77,-37 119,-121 103,-207 -8,-41 -64,-106 -106,-124 -55,-23 -35,-33 51,-27 45,4 84,9 87,12 3,2 -1,12 -8,20 -11,13 -11,28 0,85 23,124 0,219 -72,287 -54,52 -111,73 -204,73 -68,0 -89,-4 -135,-27 z"
               style="fill:#000000;fill-opacity:1;fill-rule:nonzero;stroke:none"
               id="path78"
               inkscape:connector-curvature="0" /><path
               d="m 710,5320 c -66,-22 -140,-96 -158,-157 -18,-59 -15,-151 7,-198 47,-104 130,-155 250,-155 134,1 213,45 262,146 29,58 31,71 27,132 -14,195 -190,300 -388,232 z m 220,-81 c 93,-20 147,-89 137,-175 -7,-62 -31,-93 -102,-129 -55,-28 -68,-30 -165,-30 -87,0 -112,4 -145,21 -79,41 -107,129 -68,211 40,85 200,133 343,102 z"
               style="fill:#000000;fill-opacity:1;fill-rule:nonzero;stroke:none"
               id="path80"
               inkscape:connector-curvature="0" /><path
               d="m 9066,5080 c -40,-263 -38,-345 8,-424 47,-81 170,-135 270,-120 92,15 168,80 204,176 11,30 27,106 36,168 9,63 18,125 20,138 5,32 -10,27 -23,-8 -7,-22 -16,-30 -34,-30 -46,0 -440,59 -448,67 -4,4 -12,24 -17,43 l -9,35 z m 482,-189 c 7,-2 0,-64 -12,-105 -39,-130 -162,-192 -302,-151 -117,34 -163,96 -164,222 0,109 -11,106 252,67 122,-18 224,-33 226,-33 z"
               style="fill:#000000;fill-opacity:1;fill-rule:nonzero;stroke:none"
               id="path82"
               inkscape:connector-curvature="0" /><path
               d="m 600,4659 c 0,-24 33,-166 36,-154 1,6 5,22 8,38 5,21 12,27 34,27 37,1 362,-53 362,-60 -1,-9 -299,-222 -318,-227 -13,-3 -22,4 -30,23 -23,49 -24,17 -2,-82 20,-96 30,-124 30,-91 0,31 60,85 257,228 108,79 201,147 207,151 6,4 8,9 6,12 -3,2 -115,23 -250,46 -276,46 -298,52 -322,83 -14,17 -18,19 -18,6 z"
               style="fill:#000000;fill-opacity:1;fill-rule:nonzero;stroke:none"
               id="path84"
               inkscape:connector-curvature="0" /><path
               d="m 8963,4475 c -60,-193 -103,-359 -96,-365 22,-21 108,-68 115,-63 5,2 -5,20 -22,39 -16,19 -33,46 -36,60 -13,51 25,210 53,221 20,8 213,-46 213,-60 0,-19 -42,-152 -52,-164 -6,-7 -26,-13 -45,-13 -58,0 -33,-22 56,-47 46,-13 85,-22 88,-20 2,3 -10,19 -28,36 -17,17 -29,37 -27,44 3,6 13,45 23,85 13,49 24,72 34,72 8,0 52,-11 98,-25 62,-19 83,-30 83,-43 0,-32 -48,-173 -66,-193 -10,-11 -30,-19 -51,-19 -18,0 -33,-4 -33,-9 0,-12 103,-43 111,-33 3,4 29,90 58,192 29,102 54,193 57,203 8,26 -11,20 -24,-8 -8,-17 -20,-25 -38,-25 -27,0 -395,105 -426,121 -10,5 -18,24 -20,47 -3,36 -4,35 -25,-33 z"
               style="fill:#000000;fill-opacity:1;fill-rule:nonzero;stroke:none"
               id="path86"
               inkscape:connector-curvature="0" /><path
               d="m 1093,4129 c -13,-5 -23,-10 -23,-11 0,-2 13,-43 29,-93 24,-74 33,-89 48,-87 10,2 21,7 24,10 4,4 -8,48 -25,98 -29,86 -32,91 -53,83 z"
               style="fill:#000000;fill-opacity:1;fill-rule:nonzero;stroke:none"
               id="path88"
               inkscape:connector-curvature="0" /><path
               d="m 8837,4043 c -34,-54 -130,-298 -134,-338 -5,-59 18,-103 69,-135 55,-33 104,-25 161,28 l 27,26 v -33 c 0,-73 66,-129 138,-117 60,9 104,63 171,212 66,144 75,177 35,127 -14,-18 -30,-33 -36,-33 -11,0 -304,128 -382,167 -48,24 -48,25 -42,64 6,37 3,49 -7,32 z m 79,-202 c 49,-22 90,-44 92,-50 6,-17 -46,-108 -75,-131 -23,-18 -37,-21 -76,-17 -88,8 -123,69 -92,162 19,56 32,75 50,75 7,0 52,-18 101,-39 z m 217,-97 c 113,-49 111,-47 82,-104 -42,-84 -99,-109 -165,-75 -56,29 -63,73 -27,160 12,30 24,55 25,55 2,0 40,-16 85,-36 z"
               style="fill:#000000;fill-opacity:1;fill-rule:nonzero;stroke:none"
               id="path90"
               inkscape:connector-curvature="0" /><path
               d="m 1124,3829 c -161,-62 -228,-227 -153,-378 48,-95 122,-141 229,-141 117,0 227,66 276,165 23,49 26,64 22,125 -8,104 -73,198 -164,236 -48,20 -149,17 -210,-7 z m 264,-76 c 67,-49 91,-136 58,-202 -33,-62 -123,-125 -225,-155 -70,-21 -106,-20 -157,3 -53,24 -84,74 -84,135 0,58 17,92 69,139 103,93 268,132 339,80 z"
               style="fill:#000000;fill-opacity:1;fill-rule:nonzero;stroke:none"
               id="path92"
               inkscape:connector-curvature="0" /><path
               d="m 8544,3411 c -60,-37 -123,-145 -124,-209 0,-82 40,-125 211,-227 153,-91 162,-100 154,-147 -4,-21 -5,-38 -2,-38 8,0 100,160 95,166 -3,2 -13,-5 -23,-16 -10,-11 -28,-20 -40,-20 -20,0 -208,106 -297,166 -20,14 -44,42 -54,62 -14,31 -15,43 -5,81 15,55 44,97 81,116 58,30 82,22 275,-93 147,-87 148,-88 142,-136 -4,-26 -2,-35 5,-28 17,17 117,187 112,191 -2,3 -14,-5 -27,-17 -13,-12 -30,-22 -37,-22 -8,0 -83,41 -168,92 -138,82 -161,92 -211,96 -43,2 -63,-1 -87,-17 z"
               style="fill:#000000;fill-opacity:1;fill-rule:nonzero;stroke:none"
               id="path94"
               inkscape:connector-curvature="0" /><path
               d="m 1650,3324 c 0,-3 5,-14 11,-25 5,-11 7,-28 4,-38 -5,-16 -336,-241 -379,-257 -19,-7 -67,67 -68,107 -1,20 8,40 26,58 15,16 24,31 19,34 -11,7 -113,-59 -113,-73 0,-8 222,-355 240,-374 5,-4 33,7 64,25 72,43 75,60 6,40 -40,-12 -77,7 -110,56 l -30,46 78,50 c 257,166 307,197 321,197 8,0 25,-10 38,-22 43,-41 32,-12 -32,85 -60,89 -75,107 -75,91 z"
               style="fill:#000000;fill-opacity:1;fill-rule:nonzero;stroke:none"
               id="path96"
               inkscape:connector-curvature="0" /><path
               d="m 8228,2958 c -68,-82 -79,-104 -36,-74 12,9 28,16 34,16 17,0 164,-121 164,-135 0,-30 -24,-34 -184,-29 l -161,5 -39,-46 c -21,-25 -35,-49 -32,-52 3,-4 12,-1 18,5 8,8 62,12 170,12 h 159 l -16,-30 c -20,-38 -19,-114 1,-146 39,-59 124,-71 192,-26 24,15 83,75 132,133 85,102 105,140 53,99 -33,-26 -35,-25 -218,130 -183,155 -181,153 -166,186 26,59 5,44 -71,-48 z m 282,-285 c 44,-36 80,-70 80,-74 0,-15 -53,-70 -81,-84 -48,-25 -87,-19 -125,19 -45,45 -46,93 -4,159 16,26 34,47 40,47 6,0 47,-30 90,-67 z"
               style="fill:#000000;fill-opacity:1;fill-rule:nonzero;stroke:none"
               id="path98"
               inkscape:connector-curvature="0" /><path
               d="m 1932,2914 c 2,-5 10,-21 17,-36 12,-23 12,-30 0,-47 -18,-24 -335,-291 -346,-291 -13,1 -63,72 -70,99 -4,16 1,37 15,62 12,20 18,39 15,43 -5,5 -94,-69 -101,-85 -3,-7 275,-342 289,-347 11,-4 108,69 109,82 0,4 -10,5 -22,1 -13,-4 -39,-9 -59,-12 -33,-4 -41,0 -78,38 -23,24 -40,46 -39,50 5,11 323,276 347,289 20,10 28,9 52,-9 46,-34 34,-13 -42,79 -63,75 -100,111 -87,84 z"
               style="fill:#000000;fill-opacity:1;fill-rule:nonzero;stroke:none"
               id="path100"
               inkscape:connector-curvature="0" /><path
               d="m 7864,2511 c -53,-14 -135,-64 -169,-104 -50,-58 -92,-144 -80,-161 6,-8 37,-44 69,-81 56,-63 59,-68 49,-96 -6,-16 -8,-29 -4,-29 13,0 156,139 144,140 -6,0 -15,-4 -18,-10 -16,-26 -54,-7 -118,59 -64,66 -66,70 -56,100 6,17 31,49 55,70 93,82 203,74 299,-23 116,-116 135,-235 51,-325 -56,-60 -116,-74 -196,-46 -24,8 -46,13 -48,10 -7,-6 108,-125 120,-125 4,0 8,11 8,25 0,20 10,30 50,50 72,36 125,88 156,151 79,162 -46,382 -226,398 -30,3 -69,1 -86,-3 z"
               style="fill:#000000;fill-opacity:1;fill-rule:nonzero;stroke:none"
               id="path102"
               inkscape:connector-curvature="0" /><path
               d="m 2110,2488 c -57,-29 -122,-94 -152,-155 -32,-67 -32,-160 2,-226 68,-134 222,-188 353,-124 175,86 229,297 112,435 -76,88 -215,119 -315,70 z m 236,-44 c 79,-38 105,-132 62,-226 -33,-70 -98,-142 -162,-178 -63,-37 -134,-40 -184,-10 -37,23 -71,88 -72,135 0,48 45,131 106,195 90,94 171,121 250,84 z"
               style="fill:#000000;fill-opacity:1;fill-rule:nonzero;stroke:none"
               id="path104"
               inkscape:connector-curvature="0" /><path
               d="m 5246,6375 c -44,-15 -57,-31 -54,-60 4,-29 78,-46 233,-52 93,-3 160,0 235,12 l 105,16 70,-74 c 39,-41 117,-127 175,-190 58,-63 108,-116 113,-116 33,-4 -32,118 -138,258 -48,63 -94,129 -103,147 -16,34 -53,54 -99,54 -14,0 -65,-14 -115,-31 -49,-17 -90,-30 -92,-28 -1,2 -7,16 -13,31 -9,21 -22,28 -63,37 -70,15 -207,13 -254,-4 z"
               style="fill:#000000;fill-opacity:1;fill-rule:nonzero;stroke:none"
               id="path106"
               inkscape:connector-curvature="0" /><path
               d="m 4814,6355 c -10,-26 16,-145 43,-199 14,-28 45,-70 69,-94 39,-38 44,-48 44,-87 0,-61 25,-59 65,2 44,69 68,82 183,100 84,13 102,19 100,32 -2,10 -16,17 -38,19 -43,4 -60,18 -60,48 0,37 -19,38 -63,5 -93,-69 -132,-78 -191,-42 -46,29 -87,88 -116,169 -12,34 -24,62 -27,62 -2,0 -6,-7 -9,-15 z"
               style="fill:#000000;fill-opacity:1;fill-rule:nonzero;stroke:none"
               id="path108"
               inkscape:connector-curvature="0" /><path
               d="m 5350,5981 c -107,-29 -174,-70 -221,-134 -16,-22 -26,-43 -24,-48 3,-4 21,-5 40,-2 43,7 53,-12 31,-55 -17,-33 -34,-42 -76,-42 -37,0 -62,-25 -58,-59 5,-40 48,-41 70,-1 9,16 22,30 28,30 5,0 27,-15 47,-34 49,-43 81,-59 101,-51 14,5 9,13 -27,44 -40,35 -43,40 -34,67 11,34 97,96 127,92 19,-3 22,-12 28,-89 6,-90 25,-141 57,-159 32,-17 118,-12 159,9 20,10 47,33 60,50 27,37 44,39 64,9 26,-40 28,-69 7,-109 -24,-48 -24,-49 5,-49 38,0 69,46 63,94 -8,58 -65,161 -114,207 -77,70 -119,84 -258,81 -66,-2 -138,-4 -160,-5 -35,-2 -40,1 -43,20 -7,48 84,97 201,110 59,6 80,19 56,34 -20,12 -55,10 -129,-10 z m 235,-251 c 0,-9 -11,-16 -27,-18 -27,-3 -38,14 -21,32 12,12 48,2 48,-14 z m -96,-102 c 19,-21 32,-40 30,-42 -2,-3 -19,2 -37,9 -33,14 -52,48 -51,88 0,21 1,21 12,3 7,-11 27,-37 46,-58 z m 106,-18 c 3,-5 -1,-10 -10,-10 -9,0 -13,5 -10,10 3,6 8,10 10,10 2,0 7,-4 10,-10 z"
               style="fill:#000000;fill-opacity:1;fill-rule:nonzero;stroke:none"
               id="path110"
               inkscape:connector-curvature="0" /><path
               d="m 5980,5893 c 0,-5 13,-30 29,-58 50,-87 91,-108 91,-45 0,20 -6,31 -20,35 -11,4 -28,19 -38,33 -9,15 -21,30 -27,34 -13,10 -35,10 -35,1 z"
               style="fill:#000000;fill-opacity:1;fill-rule:nonzero;stroke:none"
               id="path112"
               inkscape:connector-curvature="0" /><path
               d="m 5810,5732 c 0,-57 59,-171 111,-215 47,-41 79,-53 106,-42 16,6 15,9 -7,23 -79,51 -180,191 -180,251 0,12 -7,21 -15,21 -11,0 -15,-11 -15,-38 z"
               style="fill:#000000;fill-opacity:1;fill-rule:nonzero;stroke:none"
               id="path114"
               inkscape:connector-curvature="0" /><path
               d="m 5270,5506 c 0,-3 11,-17 25,-31 33,-32 37,-31 33,3 -2,21 -9,28 -30,30 -16,2 -28,1 -28,-2 z"
               style="fill:#000000;fill-opacity:1;fill-rule:nonzero;stroke:none"
               id="path116"
               inkscape:connector-curvature="0" /><path
               d="m 4930,4913 c 0,-15 12,-53 26,-83 14,-30 29,-71 34,-90 7,-31 8,-29 8,25 1,74 -27,169 -51,173 -13,3 -17,-3 -17,-25 z"
               style="fill:#000000;fill-opacity:1;fill-rule:nonzero;stroke:none"
               id="path118"
               inkscape:connector-curvature="0" /><path
               d="m 4555,3741 c -18,-7 -17,-9 12,-25 60,-30 100,-73 113,-121 7,-25 16,-47 20,-50 10,-6 91,96 84,107 -4,5 -17,7 -30,4 -32,-8 -60,8 -79,44 -9,18 -26,32 -43,36 -15,3 -34,7 -42,9 -8,2 -24,0 -35,-4 z"
               style="fill:#000000;fill-opacity:1;fill-rule:nonzero;stroke:none"
               id="path120"
               inkscape:connector-curvature="0" /></g></g></g></g></g></svg>