<?xml version="1.0" encoding="UTF-8"?>
<!DOCTYPE svg PUBLIC "-//W3C//DTD SVG 1.1//EN" "http://www.w3.org/Graphics/SVG/1.1/DTD/svg11.dtd">
<svg xmlns="http://www.w3.org/2000/svg" xmlns:xlink="http://www.w3.org/1999/xlink" version="1.1" width="616px" height="431px" viewBox="-0.5 -0.5 616 431"><defs><style type="text/css">@font-face {&#xa;font-family: "Latin Modern Roman";&#xa;src: url("http://mirrors.ctan.org/fonts/lm/fonts/opentype/public/lm/lmroman12-regular.otf");&#xa;}&#xa;</style></defs><g><rect x="0" y="0" width="100" height="40" fill="rgb(255, 255, 255)" stroke="rgb(0, 0, 0)" pointer-events="all"/><path d="M 50 40 L 50 100" fill="none" stroke="rgb(0, 0, 0)" stroke-miterlimit="10" stroke-dasharray="3 3" pointer-events="all"/><g fill="rgb(0, 0, 0)" font-family="Georgia" text-anchor="middle" font-size="13px"><rect fill="#ffffff" stroke="none" x="17" y="5" width="67" height="32" stroke-width="0"/><text x="49.5" y="17">Firmware</text><text x="49.5" y="33">Author</text></g><rect x="45" y="70" width="10" height="20" fill="rgb(255, 255, 255)" stroke="rgb(0, 0, 0)" pointer-events="all"/><rect x="140" y="0" width="140" height="40" fill="rgb(255, 255, 255)" stroke="rgb(0, 0, 0)" pointer-events="all"/><path d="M 210 40 L 210 430" fill="none" stroke="rgb(0, 0, 0)" stroke-miterlimit="10" stroke-dasharray="3 3" pointer-events="all"/><g fill="rgb(0, 0, 0)" font-family="Georgia" text-anchor="middle" font-size="13px"><rect fill="#ffffff" stroke="none" x="148" y="5" width="126" height="32" stroke-width="0"/><text x="209.5" y="17">Firmware Server</text><text x="209.5" y="33">(MQTT-SN Broker)</text></g><path d="M 55.1 70.12 L 196.88 70.01" fill="none" stroke="rgb(0, 0, 0)" stroke-miterlimit="10" pointer-events="stroke"/><path d="M 203.88 70 L 196.88 73.51 L 196.88 66.51 Z" fill="rgb(0, 0, 0)" stroke="rgb(0, 0, 0)" stroke-miterlimit="10" pointer-events="all"/><g fill="rgb(0, 0, 0)" font-family="Georgia" text-anchor="middle" font-size="12px"><text x="129.61" y="68.56">MQTT PUBLISH</text><text x="129.61" y="82.56">RETAIN=1, QoS=1</text><text x="129.61" y="96.56">Firmware + Manifest</text></g><rect x="300" y="0" width="100" height="40" fill="rgb(255, 255, 255)" stroke="rgb(0, 0, 0)" pointer-events="all"/><path d="M 350 40 L 350 120" fill="none" stroke="rgb(0, 0, 0)" stroke-miterlimit="10" stroke-dasharray="3 3" pointer-events="all"/><g fill="rgb(0, 0, 0)" font-family="Georgia" text-anchor="middle" font-size="13px"><rect fill="#ffffff" stroke="none" x="301" y="5" width="100" height="32" stroke-width="0"/><text x="349.5" y="17">Status Tracker</text><text x="349.5" y="33">Server</text></g><rect x="345" y="90" width="10" height="30" fill="rgb(255, 255, 255)" stroke="rgb(0, 0, 0)" pointer-events="all"/><rect x="450" y="0" width="100" height="40" fill="rgb(255, 255, 255)" stroke="rgb(0, 0, 0)" pointer-events="all"/><path d="M 500 40 L 500 430" fill="none" stroke="rgb(0, 0, 0)" stroke-miterlimit="10" stroke-dasharray="3 3" pointer-events="all"/><g fill="rgb(0, 0, 0)" font-family="Georgia" text-anchor="middle" font-size="13px"><rect fill="#ffffff" stroke="none" x="465" y="13" width="72" height="17" stroke-width="0"/><text x="499.5" y="25">IoT Device</text></g><rect x="495" y="70" width="10" height="350" fill="rgb(255, 255, 255)" stroke="rgb(0, 0, 0)" pointer-events="all"/><path d="M 214.97 150.3 L 487.13 150.2" fill="none" stroke="rgb(0, 0, 0)" stroke-miterlimit="10" pointer-events="stroke"/><path d="M 494.13 150.2 L 487.13 153.7 L 487.13 146.7 Z" fill="rgb(0, 0, 0)" stroke="rgb(0, 0, 0)" stroke-miterlimit="10" pointer-events="all"/><g fill="rgb(0, 0, 0)" font-family="Georgia" text-anchor="middle" font-size="12px"><text x="354.47" y="148.75">MQTT-SN PUBLISH</text><text x="354.47" y="162.75">suit/trigger suit/man/...</text></g><path d="M 495.12 273.82 L 223.65 273.96" fill="none" stroke="rgb(0, 0, 0)" stroke-miterlimit="10" pointer-events="stroke"/><path d="M 216.65 273.96 L 223.65 270.46 L 223.65 277.46 Z" fill="rgb(0, 0, 0)" stroke="rgb(0, 0, 0)" stroke-miterlimit="10" pointer-events="all"/><g fill="rgb(0, 0, 0)" font-family="Georgia" text-anchor="middle" font-size="12px"><text x="359.62" y="269.39">MQTT-SN PUBACK</text></g><path d="M 505.4 299.73 L 530 300 L 530 310 L 513.57 310.08" fill="none" stroke="rgb(0, 0, 0)" stroke-miterlimit="10" pointer-events="stroke"/><path d="M 506.57 310.11 L 513.55 306.58 L 513.59 313.58 Z" fill="rgb(0, 0, 0)" stroke="rgb(0, 0, 0)" stroke-miterlimit="10" pointer-events="all"/><g fill="rgb(0, 0, 0)" font-family="Georgia" font-size="12px"><rect fill="#ffffff" stroke="none" x="535" y="289" width="55" height="30" stroke-width="0"/><text x="535.15" y="300.5">Validate</text><text x="535.15" y="314.5">manifest</text></g><path d="M 215 256.02 L 486.9 255.85" fill="none" stroke="rgb(0, 0, 0)" stroke-miterlimit="10" pointer-events="stroke"/><path d="M 493.9 255.84 L 486.9 259.35 L 486.9 252.35 Z" fill="rgb(0, 0, 0)" stroke="rgb(0, 0, 0)" stroke-miterlimit="10" pointer-events="all"/><g fill="rgb(0, 0, 0)" font-family="Georgia" text-anchor="middle" font-size="12px"><rect fill="#ffffff" stroke="none" x="257" y="239" width="207" height="15" stroke-width="0"/><text x="359.5" y="250.43">MQTT-SN PUBLISH suit/man/.../0</text></g><path d="M 494.89 187.01 L 223.04 187.1" fill="none" stroke="rgb(0, 0, 0)" stroke-miterlimit="10" pointer-events="stroke"/><path d="M 216.04 187.1 L 223.04 183.6 L 223.04 190.6 Z" fill="rgb(0, 0, 0)" stroke="rgb(0, 0, 0)" stroke-miterlimit="10" pointer-events="all"/><g fill="rgb(0, 0, 0)" font-family="Georgia" text-anchor="middle" font-size="12px"><rect fill="#ffffff" stroke="none" x="291" y="171" width="119" height="15" stroke-width="0"/><text x="349.39" y="181.56">MQTT-SN PUBACK</text></g><path d="M 505.4 406.73 L 530 407 L 530 417 L 513.57 417.08" fill="none" stroke="rgb(0, 0, 0)" stroke-miterlimit="10" pointer-events="stroke"/><path d="M 506.57 417.11 L 513.55 413.58 L 513.59 420.58 Z" fill="rgb(0, 0, 0)" stroke="rgb(0, 0, 0)" stroke-miterlimit="10" pointer-events="all"/><g fill="rgb(0, 0, 0)" font-family="Georgia" font-size="12px"><rect fill="#ffffff" stroke="none" x="534" y="396" width="82" height="30" stroke-width="0"/><text x="534.1" y="407.5">Procced with</text><text x="534.1" y="421.5">installation</text></g><path d="M 495.13 82.95 L 223.19 83.29" fill="none" stroke="rgb(0, 0, 0)" stroke-miterlimit="10" pointer-events="stroke"/><path d="M 216.19 83.3 L 223.18 79.79 L 223.19 86.79 Z" fill="rgb(0, 0, 0)" stroke="rgb(0, 0, 0)" stroke-miterlimit="10" pointer-events="all"/><g fill="rgb(0, 0, 0)" font-family="Georgia" text-anchor="middle" font-size="12px"><rect fill="#ffffff" stroke="none" x="249" y="67" width="214" height="15" stroke-width="0"/><text x="354.62" y="77.62">MQTT-SN SUBSCRIBE suit/trigger</text></g><path d="M 495.05 219.88 L 222.8 219.61" fill="none" stroke="rgb(0, 0, 0)" stroke-miterlimit="10" pointer-events="stroke"/><path d="M 215.8 219.6 L 222.8 216.11 L 222.79 223.11 Z" fill="rgb(0, 0, 0)" stroke="rgb(0, 0, 0)" stroke-miterlimit="10" pointer-events="all"/><g fill="rgb(0, 0, 0)" font-family="Georgia" text-anchor="middle" font-size="12px"><rect fill="#ffffff" stroke="none" x="247" y="203" width="228" height="15" stroke-width="0"/><text x="359.55" y="214.25">MQTT-SN SUBSCRIBE suit/man/.../#</text></g><rect x="205" y="70" width="10" height="350" fill="rgb(255, 255, 255)" stroke="rgb(0, 0, 0)" pointer-events="all"/><path d="M 344.89 104.93 L 223.16 105.09" fill="none" stroke="rgb(0, 0, 0)" stroke-miterlimit="10" pointer-events="stroke"/><path d="M 216.16 105.1 L 223.15 101.59 L 223.16 108.59 Z" fill="rgb(0, 0, 0)" stroke="rgb(0, 0, 0)" stroke-miterlimit="10" pointer-events="all"/><g fill="rgb(0, 0, 0)" font-family="Georgia" text-anchor="middle" font-size="10px"><text x="284.38" y="102.52">MQTT PUBLISH</text><text x="284.38" y="114.52">suit/trigger suit/man/...</text></g><path d="M 487 293.82 L 223.65 293.96" fill="none" stroke="rgb(0, 0, 0)" stroke-miterlimit="10" pointer-events="stroke"/><path d="M 494 293.82 L 487 297.32 L 487 290.32 Z" fill="rgb(0, 0, 0)" stroke="rgb(0, 0, 0)" stroke-miterlimit="10" pointer-events="all"/><path d="M 216.65 293.96 L 223.65 290.46 L 223.65 297.46 Z" fill="rgb(0, 0, 0)" stroke="rgb(0, 0, 0)" stroke-miterlimit="10" pointer-events="all"/><g fill="rgb(0, 0, 0)" font-family="Georgia" text-anchor="middle" font-size="12px"><text x="359.62" y="288.39">(Repeat until all blocks are transferred)</text></g><path d="M 495.12 382.82 L 223.65 382.96" fill="none" stroke="rgb(0, 0, 0)" stroke-miterlimit="10" pointer-events="stroke"/><path d="M 216.65 382.96 L 223.65 379.46 L 223.65 386.46 Z" fill="rgb(0, 0, 0)" stroke="rgb(0, 0, 0)" stroke-miterlimit="10" pointer-events="all"/><g fill="rgb(0, 0, 0)" font-family="Georgia" text-anchor="middle" font-size="12px"><rect fill="#ffffff" stroke="none" x="301" y="366" width="119" height="15" stroke-width="0"/><text x="359.62" y="377.39">MQTT-SN PUBACK</text></g><path d="M 215 364.02 L 486.9 363.85" fill="none" stroke="rgb(0, 0, 0)" stroke-miterlimit="10" pointer-events="stroke"/><path d="M 493.9 363.84 L 486.9 367.35 L 486.9 360.35 Z" fill="rgb(0, 0, 0)" stroke="rgb(0, 0, 0)" stroke-miterlimit="10" pointer-events="all"/><g fill="rgb(0, 0, 0)" font-family="Georgia" text-anchor="middle" font-size="12px"><rect fill="#ffffff" stroke="none" x="262" y="347" width="196" height="15" stroke-width="0"/><text x="359.5" y="358.43">MQTT-SN PUBLISH suit/fw/.../0</text></g><path d="M 495.05 327.88 L 222.8 327.61" fill="none" stroke="rgb(0, 0, 0)" stroke-miterlimit="10" pointer-events="stroke"/><path d="M 215.8 327.6 L 222.8 324.11 L 222.79 331.11 Z" fill="rgb(0, 0, 0)" stroke="rgb(0, 0, 0)" stroke-miterlimit="10" pointer-events="all"/><g fill="rgb(0, 0, 0)" font-family="Georgia" text-anchor="middle" font-size="12px"><rect fill="#ffffff" stroke="none" x="253" y="311" width="216" height="15" stroke-width="0"/><text x="359.55" y="322.25">MQTT-SN SUBSCRIBE suit/fw/.../#</text></g><path d="M 487 402.82 L 223.65 402.96" fill="none" stroke="rgb(0, 0, 0)" stroke-miterlimit="10" pointer-events="stroke"/><path d="M 494 402.82 L 487 406.32 L 487 399.32 Z" fill="rgb(0, 0, 0)" stroke="rgb(0, 0, 0)" stroke-miterlimit="10" pointer-events="all"/><path d="M 216.65 402.96 L 223.65 399.46 L 223.65 406.46 Z" fill="rgb(0, 0, 0)" stroke="rgb(0, 0, 0)" stroke-miterlimit="10" pointer-events="all"/><g fill="rgb(0, 0, 0)" font-family="Georgia" text-anchor="middle" font-size="12px"><text x="359.62" y="397.39">(Repeat until all blocks are transferred)</text></g><path d="M 487 236.82 L 215.53 236.96" fill="none" stroke="rgb(0, 0, 0)" stroke-miterlimit="10" pointer-events="stroke"/><path d="M 494 236.82 L 487 240.32 L 487 233.32 Z" fill="rgb(0, 0, 0)" stroke="rgb(0, 0, 0)" stroke-miterlimit="10" pointer-events="all"/><g fill="rgb(0, 0, 0)" font-family="Georgia" text-anchor="middle" font-size="12px"><text x="359.62" y="232.39">MQTT-SN SUBACK</text></g><path d="M 487 344.82 L 215.53 344.96" fill="none" stroke="rgb(0, 0, 0)" stroke-miterlimit="10" pointer-events="stroke"/><path d="M 494 344.82 L 487 348.32 L 487 341.32 Z" fill="rgb(0, 0, 0)" stroke="rgb(0, 0, 0)" stroke-miterlimit="10" pointer-events="all"/><g fill="rgb(0, 0, 0)" font-family="Georgia" text-anchor="middle" font-size="12px"><text x="359.62" y="340.39">MQTT-SN SUBACK</text></g></g></svg>