<?xml version="1.0" encoding="UTF-8"?>
<!DOCTYPE svg PUBLIC "-//W3C//DTD SVG 1.1//EN" "http://www.w3.org/Graphics/SVG/1.1/DTD/svg11.dtd">
<svg xmlns="http://www.w3.org/2000/svg" xmlns:xlink="http://www.w3.org/1999/xlink" version="1.1" width="591px" height="229px" viewBox="-0.5 -0.5 591 229"><defs><style type="text/css">@font-face {&#xa;font-family: "Latin Modern Roman";&#xa;src: url("http://mirrors.ctan.org/fonts/lm/fonts/opentype/public/lm/lmroman12-regular.otf");&#xa;}&#xa;</style></defs><g><rect x="470" y="80" width="120" height="60" fill="rgb(255, 255, 255)" stroke="rgb(0, 0, 0)" pointer-events="all"/><g fill="rgb(0, 0, 0)" font-family="Georgia" text-anchor="middle" font-size="13px"><text x="529.5" y="115">IoT Device</text></g><rect x="230" y="0" width="120" height="60" fill="rgb(255, 255, 255)" stroke="rgb(0, 0, 0)" pointer-events="all"/><g fill="rgb(0, 0, 0)" font-family="Georgia" text-anchor="middle" font-size="13px"><text x="289.5" y="27">Firmware</text><text x="289.5" y="43">Server</text></g><rect x="230" y="160" width="120" height="60" fill="rgb(255, 255, 255)" stroke="rgb(0, 0, 0)" pointer-events="all"/><g fill="rgb(0, 0, 0)" font-family="Georgia" text-anchor="middle" font-size="13px"><text x="289.5" y="187">Status Tracker</text><text x="289.5" y="203">Server</text></g><rect x="0" y="80" width="120" height="60" fill="rgb(255, 255, 255)" stroke="rgb(0, 0, 0)" pointer-events="all"/><g fill="rgb(0, 0, 0)" font-family="Georgia" text-anchor="middle" font-size="13px"><text x="59.5" y="107">Firmware</text><text x="59.5" y="123">Author</text></g><path d="M 120 110 L 224.85 33.75" fill="none" stroke="rgb(0, 0, 0)" stroke-miterlimit="10" pointer-events="stroke"/><path d="M 229.1 30.66 L 225.49 37.61 L 224.85 33.75 L 221.38 31.94 Z" fill="rgb(0, 0, 0)" stroke="rgb(0, 0, 0)" stroke-miterlimit="10" pointer-events="all"/><g fill="rgb(0, 0, 0)" font-family="Georgia" text-anchor="middle" font-size="13px"><rect fill="rgb(255, 255, 255)" stroke="none" x="140" y="62" width="71" height="48" stroke-width="0"/><text x="174.58" y="73.62">Firmware</text><text x="174.58" y="89.62">manifest</text><text x="174.58" y="105.62">and image</text></g><path d="M 350 188 L 464.7 111.53" fill="none" stroke="rgb(0, 0, 0)" stroke-miterlimit="10" pointer-events="stroke"/><path d="M 469.07 108.62 L 465.19 115.42 L 464.7 111.53 L 461.3 109.59 Z" fill="rgb(0, 0, 0)" stroke="rgb(0, 0, 0)" stroke-miterlimit="10" pointer-events="all"/><g fill="rgb(0, 0, 0)" font-family="Georgia" text-anchor="middle" font-size="13px"><rect fill="#ffffff" stroke="none" x="395" y="113" width="51" height="32" stroke-width="0"/><text x="419.95" y="124.82">Status</text><text x="419.95" y="140.82">queries</text></g><path d="M 470 140 L 355.3 216.47" fill="none" stroke="rgb(0, 0, 0)" stroke-miterlimit="10" pointer-events="stroke"/><path d="M 350.93 219.38 L 354.81 212.58 L 355.3 216.47 L 358.7 218.41 Z" fill="rgb(0, 0, 0)" stroke="rgb(0, 0, 0)" stroke-miterlimit="10" pointer-events="all"/><g fill="rgb(0, 0, 0)" font-family="Georgia" text-anchor="middle" font-size="13px"><rect fill="#ffffff" stroke="none" x="374" y="175" width="54" height="32" stroke-width="0"/><text x="399.61" y="187.2">Status</text><text x="399.61" y="203.2">updates</text></g><path d="M 350 30 L 464.12 77.55" fill="none" stroke="rgb(0, 0, 0)" stroke-miterlimit="10" pointer-events="stroke"/><path d="M 468.97 79.57 L 461.16 80.11 L 464.12 77.55 L 463.85 73.65 Z" fill="rgb(0, 0, 0)" stroke="rgb(0, 0, 0)" stroke-miterlimit="10" pointer-events="all"/><g fill="rgb(0, 0, 0)" font-family="Georgia" text-anchor="middle" font-size="13px"><rect fill="rgb(255, 255, 255)" stroke="none" x="375" y="28" width="71" height="48" stroke-width="0"/><text x="409.19" y="39.54">Firmware</text><text x="409.19" y="55.54">manifest</text><text x="409.19" y="71.54">and image</text></g></g></svg>