<?xml version="1.0" encoding="UTF-8"?>
<!DOCTYPE svg PUBLIC "-//W3C//DTD SVG 1.1//EN" "http://www.w3.org/Graphics/SVG/1.1/DTD/svg11.dtd">
<svg xmlns="http://www.w3.org/2000/svg" xmlns:xlink="http://www.w3.org/1999/xlink" version="1.1" width="591px" height="351px" viewBox="-0.5 -0.5 591 351"><defs><style type="text/css">@font-face {&#xa;font-family: "Latin Modern Roman";&#xa;src: url("http://mirrors.ctan.org/fonts/lm/fonts/opentype/public/lm/lmroman12-regular.otf");&#xa;}&#xa;</style></defs><g><rect x="0" y="0" width="100" height="40" fill="rgb(255, 255, 255)" stroke="rgb(0, 0, 0)" pointer-events="all"/><path d="M 50 40 L 50 100" fill="none" stroke="rgb(0, 0, 0)" stroke-miterlimit="10" stroke-dasharray="3 3" pointer-events="all"/><g fill="rgb(0, 0, 0)" font-family="Georgia" text-anchor="middle" font-size="13px"><text x="49.5" y="17">Firmware</text><text x="49.5" y="33">Author</text></g><rect x="45" y="70" width="10" height="20" fill="rgb(255, 255, 255)" stroke="rgb(0, 0, 0)" pointer-events="all"/><rect x="140" y="0" width="100" height="40" fill="rgb(255, 255, 255)" stroke="rgb(0, 0, 0)" pointer-events="all"/><path d="M 190 40 L 190 340" fill="none" stroke="rgb(0, 0, 0)" stroke-miterlimit="10" stroke-dasharray="3 3" pointer-events="all"/><g fill="rgb(0, 0, 0)" font-family="Georgia" text-anchor="middle" font-size="13px"><text x="189.5" y="17">Firmware</text><text x="189.5" y="33">Server</text></g><rect x="185" y="70" width="10" height="260" fill="rgb(255, 255, 255)" stroke="rgb(0, 0, 0)" pointer-events="all"/><path d="M 55 70 L 176.88 70" fill="none" stroke="rgb(0, 0, 0)" stroke-miterlimit="10" pointer-events="stroke"/><path d="M 183.88 70 L 176.88 73.5 L 176.88 66.5 Z" fill="rgb(0, 0, 0)" stroke="rgb(0, 0, 0)" stroke-miterlimit="10" pointer-events="all"/><g fill="rgb(0, 0, 0)" font-family="Georgia" text-anchor="middle" font-size="13px"><text x="119.5" y="66.5">Upload Manifest</text><text x="119.5" y="82.5">+ Image</text></g><rect x="260" y="0" width="100" height="40" fill="rgb(255, 255, 255)" stroke="rgb(0, 0, 0)" pointer-events="all"/><path d="M 310 40 L 310 140" fill="none" stroke="rgb(0, 0, 0)" stroke-miterlimit="10" stroke-dasharray="3 3" pointer-events="all"/><g fill="rgb(0, 0, 0)" font-family="Georgia" text-anchor="middle" font-size="13px"><text x="309.5" y="17">Status Tracker</text><text x="309.5" y="33">Server</text></g><rect x="305" y="70" width="10" height="70" fill="rgb(255, 255, 255)" stroke="rgb(0, 0, 0)" pointer-events="all"/><rect x="420" y="0" width="100" height="40" fill="rgb(255, 255, 255)" stroke="rgb(0, 0, 0)" pointer-events="all"/><path d="M 470 40 L 470 350" fill="none" stroke="rgb(0, 0, 0)" stroke-miterlimit="10" stroke-dasharray="3 3" pointer-events="all"/><g fill="rgb(0, 0, 0)" font-family="Georgia" text-anchor="middle" font-size="13px"><text x="469.5" y="25">IoT Device</text></g><rect x="465" y="70" width="10" height="270" fill="rgb(255, 255, 255)" stroke="rgb(0, 0, 0)" pointer-events="all"/><path d="M 195 79.66 L 296.77 79.4" fill="none" stroke="rgb(0, 0, 0)" stroke-miterlimit="10" pointer-events="stroke"/><path d="M 303.77 79.38 L 296.78 82.9 L 296.76 75.9 Z" fill="rgb(0, 0, 0)" stroke="rgb(0, 0, 0)" stroke-miterlimit="10" pointer-events="all"/><g fill="rgb(0, 0, 0)" font-family="Georgia" text-anchor="middle" font-size="13px"><text x="249.5" y="74.02">Notify</text></g><path d="M 314.97 90.02 L 456.88 90.14" fill="none" stroke="rgb(0, 0, 0)" stroke-miterlimit="10" pointer-events="stroke"/><path d="M 463.88 90.15 L 456.88 93.64 L 456.89 86.64 Z" fill="rgb(0, 0, 0)" stroke="rgb(0, 0, 0)" stroke-miterlimit="10" pointer-events="all"/><g fill="rgb(0, 0, 0)" font-family="Georgia" text-anchor="middle" font-size="13px"><text x="389.46" y="86.58">CoAP POST</text><text x="389.46" y="102.58">/suit/trigger coap://...</text></g><path d="M 465 169.15 L 203.65 169.94" fill="none" stroke="rgb(0, 0, 0)" stroke-miterlimit="10" pointer-events="stroke"/><path d="M 196.65 169.96 L 203.64 166.44 L 203.66 173.44 Z" fill="rgb(0, 0, 0)" stroke="rgb(0, 0, 0)" stroke-miterlimit="10" pointer-events="all"/><g fill="rgb(0, 0, 0)" font-family="Georgia" text-anchor="middle" font-size="13px"><rect fill="#ffffff" stroke="none" x="263" y="151" width="136" height="17" stroke-width="0"/><text x="329.5" y="164.06">CoAP GET /manifest</text></g><path d="M 475.4 235.73 L 500 236 L 500 246 L 483.57 246.08" fill="none" stroke="rgb(0, 0, 0)" stroke-miterlimit="10" pointer-events="stroke"/><path d="M 476.57 246.11 L 483.55 242.58 L 483.59 249.58 Z" fill="rgb(0, 0, 0)" stroke="rgb(0, 0, 0)" stroke-miterlimit="10" pointer-events="all"/><g fill="rgb(0, 0, 0)" font-family="Georgia" font-size="13px"><text x="505.15" y="234.5">Validate</text><text x="505.15" y="250.5">manifest</text></g><path d="M 195 200.02 L 456.88 199.18" fill="none" stroke="rgb(0, 0, 0)" stroke-miterlimit="10" pointer-events="stroke"/><path d="M 463.88 199.15 L 456.89 202.68 L 456.87 195.68 Z" fill="rgb(0, 0, 0)" stroke="rgb(0, 0, 0)" stroke-miterlimit="10" pointer-events="all"/><g fill="rgb(0, 0, 0)" font-family="Georgia" text-anchor="middle" font-size="13px"><rect fill="#ffffff" stroke="none" x="286" y="181" width="88" height="17" stroke-width="0"/><text x="329.5" y="194.09">CoAP ACK ...</text></g><path d="M 475.4 325.73 L 500 326 L 500 336 L 483.57 336.08" fill="none" stroke="rgb(0, 0, 0)" stroke-miterlimit="10" pointer-events="stroke"/><path d="M 476.57 336.11 L 483.55 332.58 L 483.59 339.58 Z" fill="rgb(0, 0, 0)" stroke="rgb(0, 0, 0)" stroke-miterlimit="10" pointer-events="all"/><g fill="rgb(0, 0, 0)" font-family="Georgia" font-size="13px"><text x="503.14" y="327.5">Proceed with</text><text x="503.14" y="343.5">installation</text></g><path d="M 464.61 130.01 L 322.95 129.85" fill="none" stroke="rgb(0, 0, 0)" stroke-miterlimit="10" pointer-events="stroke"/><path d="M 315.95 129.84 L 322.95 126.35 L 322.94 133.35 Z" fill="rgb(0, 0, 0)" stroke="rgb(0, 0, 0)" stroke-miterlimit="10" pointer-events="all"/><g fill="rgb(0, 0, 0)" font-family="Georgia" text-anchor="middle" font-size="13px"><rect fill="#ffffff" stroke="none" x="355" y="111" width="71" height="17" stroke-width="0"/><text x="389.11" y="124.42">CoAP ACK</text></g><path d="M 465 259.15 L 203.65 259.94" fill="none" stroke="rgb(0, 0, 0)" stroke-miterlimit="10" pointer-events="stroke"/><path d="M 196.65 259.96 L 203.64 256.44 L 203.66 263.44 Z" fill="rgb(0, 0, 0)" stroke="rgb(0, 0, 0)" stroke-miterlimit="10" pointer-events="all"/><g fill="rgb(0, 0, 0)" font-family="Georgia" text-anchor="middle" font-size="13px"><rect fill="#ffffff" stroke="none" x="271" y="241" width="119" height="17" stroke-width="0"/><text x="329.5" y="254.06">CoAP GET /image</text></g><path d="M 195 290.02 L 456.88 289.18" fill="none" stroke="rgb(0, 0, 0)" stroke-miterlimit="10" pointer-events="stroke"/><path d="M 463.88 289.15 L 456.89 292.68 L 456.87 285.68 Z" fill="rgb(0, 0, 0)" stroke="rgb(0, 0, 0)" stroke-miterlimit="10" pointer-events="all"/><g fill="rgb(0, 0, 0)" font-family="Georgia" text-anchor="middle" font-size="13px"><rect fill="#ffffff" stroke="none" x="286" y="271" width="88" height="17" stroke-width="0"/><text x="329.5" y="284.09">CoAP ACK ...</text></g><path d="M 203.12 319.99 L 456.88 319.18" fill="none" stroke="rgb(0, 0, 0)" stroke-miterlimit="10" pointer-events="stroke"/><path d="M 196.12 320.02 L 203.11 316.49 L 203.13 323.49 Z" fill="rgb(0, 0, 0)" stroke="rgb(0, 0, 0)" stroke-miterlimit="10" pointer-events="all"/><path d="M 463.88 319.15 L 456.89 322.68 L 456.87 315.68 Z" fill="rgb(0, 0, 0)" stroke="rgb(0, 0, 0)" stroke-miterlimit="10" pointer-events="all"/><g fill="rgb(0, 0, 0)" font-family="Georgia" text-anchor="middle" font-size="13px"><rect fill="#ffffff" stroke="none" x="198" y="301" width="265" height="17" stroke-width="0"/><text x="329.5" y="314.09">(Repeat until all blocks are transferred)</text></g><path d="M 203.12 229.99 L 456.88 229.18" fill="none" stroke="rgb(0, 0, 0)" stroke-miterlimit="10" pointer-events="stroke"/><path d="M 196.12 230.02 L 203.11 226.49 L 203.13 233.49 Z" fill="rgb(0, 0, 0)" stroke="rgb(0, 0, 0)" stroke-miterlimit="10" pointer-events="all"/><path d="M 463.88 229.15 L 456.89 232.68 L 456.87 225.68 Z" fill="rgb(0, 0, 0)" stroke="rgb(0, 0, 0)" stroke-miterlimit="10" pointer-events="all"/><g fill="rgb(0, 0, 0)" font-family="Georgia" text-anchor="middle" font-size="13px"><rect fill="#ffffff" stroke="none" x="198" y="211" width="265" height="17" stroke-width="0"/><text x="329.5" y="224.09">(Repeat until all blocks are transferred)</text></g></g></svg>